<svg xmlns="http://www.w3.org/2000/svg" xmlns:xlink="http://www.w3.org/1999/xlink" width="2000" zoomAndPan="magnify" viewBox="0 0 1500 1499.999933" height="2000" preserveAspectRatio="xMidYMid meet" version="1.0"><defs><g/><clipPath id="8936cacab1"><rect x="0" width="1017" y="0" height="898"/></clipPath><clipPath id="c7f97c34c4"><path d="M 316 297 L 1267 297 L 1267 1056 L 316 1056 Z M 316 297 " clip-rule="nonzero"/></clipPath><clipPath id="a3e9e66528"><path d="M 167.253906 86.59375 L 1564.910156 1049.515625 L 1415.558594 1266.296875 L 17.902344 303.375 Z M 167.253906 86.59375 " clip-rule="nonzero"/></clipPath><clipPath id="1280e8d415"><path d="M 167.253906 86.59375 L 1564.910156 1049.515625 L 1415.558594 1266.296875 L 17.902344 303.375 Z M 167.253906 86.59375 " clip-rule="nonzero"/></clipPath><clipPath id="869ff648b8"><path d="M 1173 904 L 1285 904 L 1285 1050 L 1173 1050 Z M 1173 904 " clip-rule="nonzero"/></clipPath><clipPath id="a0e7d9ad5e"><path d="M 167.253906 86.59375 L 1564.910156 1049.515625 L 1415.558594 1266.296875 L 17.902344 303.375 Z M 167.253906 86.59375 " clip-rule="nonzero"/></clipPath><clipPath id="6194c48c87"><path d="M 167.253906 86.59375 L 1564.910156 1049.515625 L 1415.558594 1266.296875 L 17.902344 303.375 Z M 167.253906 86.59375 " clip-rule="nonzero"/></clipPath><clipPath id="2fd9783eec"><path d="M 1226 952 L 1500 952 L 1500 1189 L 1226 1189 Z M 1226 952 " clip-rule="nonzero"/></clipPath><clipPath id="1e36b132e8"><path d="M 167.253906 86.59375 L 1564.910156 1049.515625 L 1415.558594 1266.296875 L 17.902344 303.375 Z M 167.253906 86.59375 " clip-rule="nonzero"/></clipPath><clipPath id="293d040582"><path d="M 167.253906 86.59375 L 1564.910156 1049.515625 L 1415.558594 1266.296875 L 17.902344 303.375 Z M 167.253906 86.59375 " clip-rule="nonzero"/></clipPath><clipPath id="6905b7e7da"><path d="M 80 164 L 357 164 L 357 401 L 80 401 Z M 80 164 " clip-rule="nonzero"/></clipPath><clipPath id="4df6054ab7"><path d="M 167.253906 86.59375 L 1564.910156 1049.515625 L 1415.558594 1266.296875 L 17.902344 303.375 Z M 167.253906 86.59375 " clip-rule="nonzero"/></clipPath><clipPath id="859427f892"><path d="M 167.253906 86.59375 L 1564.910156 1049.515625 L 1415.558594 1266.296875 L 17.902344 303.375 Z M 167.253906 86.59375 " clip-rule="nonzero"/></clipPath><clipPath id="5df55bcd6d"><path d="M 298 303 L 410 303 L 410 449 L 298 449 Z M 298 303 " clip-rule="nonzero"/></clipPath><clipPath id="7744d5c5a6"><path d="M 167.253906 86.59375 L 1564.910156 1049.515625 L 1415.558594 1266.296875 L 17.902344 303.375 Z M 167.253906 86.59375 " clip-rule="nonzero"/></clipPath><clipPath id="9c3c6306b8"><path d="M 167.253906 86.59375 L 1564.910156 1049.515625 L 1415.558594 1266.296875 L 17.902344 303.375 Z M 167.253906 86.59375 " clip-rule="nonzero"/></clipPath></defs><g transform="matrix(1, 0, 0, 1, 132, 425)"><g clip-path="url(#8936cacab1)"><path fill="#f5dfe0" d="M 36.757812 325.394531 L 117.648438 207.664062 L 223.730469 53.277344 C 243.257812 24.855469 282.128906 17.644531 310.550781 37.171875 L 963.714844 485.957031 C 992.136719 505.488281 999.347656 544.359375 979.820312 572.78125 L 873.738281 727.167969 L 792.847656 844.898438 C 783.46875 858.550781 769.054688 867.914062 752.769531 870.933594 C 736.488281 873.953125 719.671875 870.382812 706.023438 861.003906 L 52.859375 412.21875 C 24.4375 392.691406 17.230469 353.816406 36.757812 325.394531 Z M 36.757812 325.394531 " fill-opacity="1" fill-rule="nonzero"/><g fill="#b10f16" fill-opacity="1"><g transform="translate(213.282034, 187.401311)"><g><path d="M 95.1875 8.890625 C 86.363281 21.734375 76.957031 29.726562 66.96875 32.875 C 56.976562 36.03125 46.863281 34.085938 36.625 27.046875 C 26.5 20.085938 21.050781 11.429688 20.28125 1.078125 C 19.519531 -9.273438 23.347656 -20.726562 31.765625 -33.28125 L 43.515625 -50.375 C 52.421875 -63.332031 61.867188 -71.320312 71.859375 -74.34375 C 81.859375 -77.363281 91.914062 -75.394531 102.03125 -68.4375 C 112.15625 -61.488281 117.609375 -52.847656 118.390625 -42.515625 C 119.171875 -32.191406 115.351562 -20.753906 106.9375 -8.203125 Z M 89.640625 -22.53125 C 94.921875 -30.21875 97.710938 -36.535156 98.015625 -41.484375 C 98.328125 -46.441406 96.253906 -50.457031 91.796875 -53.53125 C 87.460938 -56.507812 83.113281 -57.035156 78.75 -55.109375 C 74.394531 -53.191406 69.710938 -48.726562 64.703125 -41.71875 L 49.203125 -19.140625 C 43.992188 -11.566406 41.15625 -5.234375 40.6875 -0.140625 C 40.226562 4.941406 42.273438 9.046875 46.828125 12.171875 C 51.328125 15.265625 55.789062 15.734375 60.21875 13.578125 C 64.644531 11.429688 69.394531 6.753906 74.46875 -0.453125 Z M 89.640625 -22.53125 "/></g></g></g><g fill="#b10f16" fill-opacity="1"><g transform="translate(294.731309, 243.364604)"><g><path d="M 51.078125 35.09375 L 32.640625 22.4375 L 81.453125 -48.59375 L 54.78125 -56.890625 L 65.078125 -71.890625 L 113 -59.25 L 114.96875 -57.890625 Z M 51.078125 35.09375 "/></g></g></g><g fill="#b10f16" fill-opacity="1"><g transform="translate(376.180585, 299.327898)"><g><path d="M 51.078125 35.09375 L 32.640625 22.4375 L 81.453125 -48.59375 L 54.78125 -56.890625 L 65.078125 -71.890625 L 113 -59.25 L 114.96875 -57.890625 Z M 51.078125 35.09375 "/></g></g></g><g fill="#b10f16" fill-opacity="1"><g transform="translate(457.629861, 355.291191)"><g><path d="M 95.1875 8.890625 C 86.363281 21.734375 76.957031 29.726562 66.96875 32.875 C 56.976562 36.03125 46.863281 34.085938 36.625 27.046875 C 26.5 20.085938 21.050781 11.429688 20.28125 1.078125 C 19.519531 -9.273438 23.347656 -20.726562 31.765625 -33.28125 L 43.515625 -50.375 C 52.421875 -63.332031 61.867188 -71.320312 71.859375 -74.34375 C 81.859375 -77.363281 91.914062 -75.394531 102.03125 -68.4375 C 112.15625 -61.488281 117.609375 -52.847656 118.390625 -42.515625 C 119.171875 -32.191406 115.351562 -20.753906 106.9375 -8.203125 Z M 89.640625 -22.53125 C 94.921875 -30.21875 97.710938 -36.535156 98.015625 -41.484375 C 98.328125 -46.441406 96.253906 -50.457031 91.796875 -53.53125 C 87.460938 -56.507812 83.113281 -57.035156 78.75 -55.109375 C 74.394531 -53.191406 69.710938 -48.726562 64.703125 -41.71875 L 49.203125 -19.140625 C 43.992188 -11.566406 41.15625 -5.234375 40.6875 -0.140625 C 40.226562 4.941406 42.273438 9.046875 46.828125 12.171875 C 51.328125 15.265625 55.789062 15.734375 60.21875 13.578125 C 64.644531 11.429688 69.394531 6.753906 74.46875 -0.453125 Z M 89.640625 -22.53125 "/></g></g></g><g fill="#b10f16" fill-opacity="1"><g transform="translate(539.079136, 411.254484)"><g><path d="M 51.078125 35.09375 L 32.640625 22.4375 L 81.453125 -48.59375 L 54.78125 -56.890625 L 65.078125 -71.890625 L 113 -59.25 L 114.96875 -57.890625 Z M 51.078125 35.09375 "/></g></g></g><g fill="#b10f16" fill-opacity="1"><g transform="translate(620.528395, 467.217766)"><g><path d="M 51.078125 35.09375 L 32.640625 22.4375 L 81.453125 -48.59375 L 54.78125 -56.890625 L 65.078125 -71.890625 L 113 -59.25 L 114.96875 -57.890625 Z M 51.078125 35.09375 "/></g></g></g><g fill="#b10f16" fill-opacity="1"><g transform="translate(701.977689, 523.181072)"><g><path d="M 95.1875 8.890625 C 86.363281 21.734375 76.957031 29.726562 66.96875 32.875 C 56.976562 36.03125 46.863281 34.085938 36.625 27.046875 C 26.5 20.085938 21.050781 11.429688 20.28125 1.078125 C 19.519531 -9.273438 23.347656 -20.726562 31.765625 -33.28125 L 43.515625 -50.375 C 52.421875 -63.332031 61.867188 -71.320312 71.859375 -74.34375 C 81.859375 -77.363281 91.914062 -75.394531 102.03125 -68.4375 C 112.15625 -61.488281 117.609375 -52.847656 118.390625 -42.515625 C 119.171875 -32.191406 115.351562 -20.753906 106.9375 -8.203125 Z M 89.640625 -22.53125 C 94.921875 -30.21875 97.710938 -36.535156 98.015625 -41.484375 C 98.328125 -46.441406 96.253906 -50.457031 91.796875 -53.53125 C 87.460938 -56.507812 83.113281 -57.035156 78.75 -55.109375 C 74.394531 -53.191406 69.710938 -48.726562 64.703125 -41.71875 L 49.203125 -19.140625 C 43.992188 -11.566406 41.15625 -5.234375 40.6875 -0.140625 C 40.226562 4.941406 42.273438 9.046875 46.828125 12.171875 C 51.328125 15.265625 55.789062 15.734375 60.21875 13.578125 C 64.644531 11.429688 69.394531 6.753906 74.46875 -0.453125 Z M 89.640625 -22.53125 "/></g></g></g><g fill="#b10f16" fill-opacity="1"><g transform="translate(783.426982, 579.144378)"><g><path d="M 51.078125 35.09375 L 32.640625 22.4375 L 81.453125 -48.59375 L 54.78125 -56.890625 L 65.078125 -71.890625 L 113 -59.25 L 114.96875 -57.890625 Z M 51.078125 35.09375 "/></g></g></g><g fill="#b10f16" fill-opacity="1"><g transform="translate(97.029944, 356.595222)"><g><path d="M 95.1875 8.890625 C 86.363281 21.734375 76.957031 29.726562 66.96875 32.875 C 56.976562 36.03125 46.863281 34.085938 36.625 27.046875 C 26.5 20.085938 21.050781 11.429688 20.28125 1.078125 C 19.519531 -9.273438 23.347656 -20.726562 31.765625 -33.28125 L 43.515625 -50.375 C 52.421875 -63.332031 61.867188 -71.320312 71.859375 -74.34375 C 81.859375 -77.363281 91.914062 -75.394531 102.03125 -68.4375 C 112.15625 -61.488281 117.609375 -52.847656 118.390625 -42.515625 C 119.171875 -32.191406 115.351562 -20.753906 106.9375 -8.203125 Z M 89.640625 -22.53125 C 94.921875 -30.21875 97.710938 -36.535156 98.015625 -41.484375 C 98.328125 -46.441406 96.253906 -50.457031 91.796875 -53.53125 C 87.460938 -56.507812 83.113281 -57.035156 78.75 -55.109375 C 74.394531 -53.191406 69.710938 -48.726562 64.703125 -41.71875 L 49.203125 -19.140625 C 43.992188 -11.566406 41.15625 -5.234375 40.6875 -0.140625 C 40.226562 4.941406 42.273438 9.046875 46.828125 12.171875 C 51.328125 15.265625 55.789062 15.734375 60.21875 13.578125 C 64.644531 11.429688 69.394531 6.753906 74.46875 -0.453125 Z M 89.640625 -22.53125 "/></g></g></g><g fill="#b10f16" fill-opacity="1"><g transform="translate(178.479219, 412.558516)"><g><path d="M 51.078125 35.09375 L 32.640625 22.4375 L 81.453125 -48.59375 L 54.78125 -56.890625 L 65.078125 -71.890625 L 113 -59.25 L 114.96875 -57.890625 Z M 51.078125 35.09375 "/></g></g></g><g fill="#b10f16" fill-opacity="1"><g transform="translate(259.928495, 468.521809)"><g><path d="M 51.078125 35.09375 L 32.640625 22.4375 L 81.453125 -48.59375 L 54.78125 -56.890625 L 65.078125 -71.890625 L 113 -59.25 L 114.96875 -57.890625 Z M 51.078125 35.09375 "/></g></g></g><g fill="#b10f16" fill-opacity="1"><g transform="translate(341.377771, 524.485103)"><g><path d="M 51.078125 35.09375 L 32.640625 22.4375 L 81.453125 -48.59375 L 54.78125 -56.890625 L 65.078125 -71.890625 L 113 -59.25 L 114.96875 -57.890625 Z M 51.078125 35.09375 "/></g></g></g><g fill="#b10f16" fill-opacity="1"><g transform="translate(422.827046, 580.448396)"><g><path d="M 95.1875 8.890625 C 86.363281 21.734375 76.957031 29.726562 66.96875 32.875 C 56.976562 36.03125 46.863281 34.085938 36.625 27.046875 C 26.5 20.085938 21.050781 11.429688 20.28125 1.078125 C 19.519531 -9.273438 23.347656 -20.726562 31.765625 -33.28125 L 43.515625 -50.375 C 52.421875 -63.332031 61.867188 -71.320312 71.859375 -74.34375 C 81.859375 -77.363281 91.914062 -75.394531 102.03125 -68.4375 C 112.15625 -61.488281 117.609375 -52.847656 118.390625 -42.515625 C 119.171875 -32.191406 115.351562 -20.753906 106.9375 -8.203125 Z M 89.640625 -22.53125 C 94.921875 -30.21875 97.710938 -36.535156 98.015625 -41.484375 C 98.328125 -46.441406 96.253906 -50.457031 91.796875 -53.53125 C 87.460938 -56.507812 83.113281 -57.035156 78.75 -55.109375 C 74.394531 -53.191406 69.710938 -48.726562 64.703125 -41.71875 L 49.203125 -19.140625 C 43.992188 -11.566406 41.15625 -5.234375 40.6875 -0.140625 C 40.226562 4.941406 42.273438 9.046875 46.828125 12.171875 C 51.328125 15.265625 55.789062 15.734375 60.21875 13.578125 C 64.644531 11.429688 69.394531 6.753906 74.46875 -0.453125 Z M 89.640625 -22.53125 "/></g></g></g><g fill="#b10f16" fill-opacity="1"><g transform="translate(504.276305, 636.411678)"><g><path d="M 95.1875 8.890625 C 86.363281 21.734375 76.957031 29.726562 66.96875 32.875 C 56.976562 36.03125 46.863281 34.085938 36.625 27.046875 C 26.5 20.085938 21.050781 11.429688 20.28125 1.078125 C 19.519531 -9.273438 23.347656 -20.726562 31.765625 -33.28125 L 43.515625 -50.375 C 52.421875 -63.332031 61.867188 -71.320312 71.859375 -74.34375 C 81.859375 -77.363281 91.914062 -75.394531 102.03125 -68.4375 C 112.15625 -61.488281 117.609375 -52.847656 118.390625 -42.515625 C 119.171875 -32.191406 115.351562 -20.753906 106.9375 -8.203125 Z M 89.640625 -22.53125 C 94.921875 -30.21875 97.710938 -36.535156 98.015625 -41.484375 C 98.328125 -46.441406 96.253906 -50.457031 91.796875 -53.53125 C 87.460938 -56.507812 83.113281 -57.035156 78.75 -55.109375 C 74.394531 -53.191406 69.710938 -48.726562 64.703125 -41.71875 L 49.203125 -19.140625 C 43.992188 -11.566406 41.15625 -5.234375 40.6875 -0.140625 C 40.226562 4.941406 42.273438 9.046875 46.828125 12.171875 C 51.328125 15.265625 55.789062 15.734375 60.21875 13.578125 C 64.644531 11.429688 69.394531 6.753906 74.46875 -0.453125 Z M 89.640625 -22.53125 "/></g></g></g><g fill="#b10f16" fill-opacity="1"><g transform="translate(585.725599, 692.374984)"><g><path d="M 95.1875 8.890625 C 86.363281 21.734375 76.957031 29.726562 66.96875 32.875 C 56.976562 36.03125 46.863281 34.085938 36.625 27.046875 C 26.5 20.085938 21.050781 11.429688 20.28125 1.078125 C 19.519531 -9.273438 23.347656 -20.726562 31.765625 -33.28125 L 43.515625 -50.375 C 52.421875 -63.332031 61.867188 -71.320312 71.859375 -74.34375 C 81.859375 -77.363281 91.914062 -75.394531 102.03125 -68.4375 C 112.15625 -61.488281 117.609375 -52.847656 118.390625 -42.515625 C 119.171875 -32.191406 115.351562 -20.753906 106.9375 -8.203125 Z M 89.640625 -22.53125 C 94.921875 -30.21875 97.710938 -36.535156 98.015625 -41.484375 C 98.328125 -46.441406 96.253906 -50.457031 91.796875 -53.53125 C 87.460938 -56.507812 83.113281 -57.035156 78.75 -55.109375 C 74.394531 -53.191406 69.710938 -48.726562 64.703125 -41.71875 L 49.203125 -19.140625 C 43.992188 -11.566406 41.15625 -5.234375 40.6875 -0.140625 C 40.226562 4.941406 42.273438 9.046875 46.828125 12.171875 C 51.328125 15.265625 55.789062 15.734375 60.21875 13.578125 C 64.644531 11.429688 69.394531 6.753906 74.46875 -0.453125 Z M 89.640625 -22.53125 "/></g></g></g><g fill="#b10f16" fill-opacity="1"><g transform="translate(667.174892, 748.33829)"><g><path d="M 95.1875 8.890625 C 86.363281 21.734375 76.957031 29.726562 66.96875 32.875 C 56.976562 36.03125 46.863281 34.085938 36.625 27.046875 C 26.5 20.085938 21.050781 11.429688 20.28125 1.078125 C 19.519531 -9.273438 23.347656 -20.726562 31.765625 -33.28125 L 43.515625 -50.375 C 52.421875 -63.332031 61.867188 -71.320312 71.859375 -74.34375 C 81.859375 -77.363281 91.914062 -75.394531 102.03125 -68.4375 C 112.15625 -61.488281 117.609375 -52.847656 118.390625 -42.515625 C 119.171875 -32.191406 115.351562 -20.753906 106.9375 -8.203125 Z M 89.640625 -22.53125 C 94.921875 -30.21875 97.710938 -36.535156 98.015625 -41.484375 C 98.328125 -46.441406 96.253906 -50.457031 91.796875 -53.53125 C 87.460938 -56.507812 83.113281 -57.035156 78.75 -55.109375 C 74.394531 -53.191406 69.710938 -48.726562 64.703125 -41.71875 L 49.203125 -19.140625 C 43.992188 -11.566406 41.15625 -5.234375 40.6875 -0.140625 C 40.226562 4.941406 42.273438 9.046875 46.828125 12.171875 C 51.328125 15.265625 55.789062 15.734375 60.21875 13.578125 C 64.644531 11.429688 69.394531 6.753906 74.46875 -0.453125 Z M 89.640625 -22.53125 "/></g></g></g></g></g><g clip-path="url(#c7f97c34c4)"><g clip-path="url(#a3e9e66528)"><g clip-path="url(#1280e8d415)"><path fill="#b10f16" d="M 1248.066406 831.222656 L 484.199219 304.953125 C 465.171875 291.84375 438.96875 296.667969 425.859375 315.699219 L 324.183594 463.28125 C 311.074219 482.308594 315.898438 508.511719 334.929688 521.621094 L 1098.792969 1047.886719 C 1117.820312 1061 1144.023438 1056.171875 1157.132812 1037.144531 L 1258.808594 889.5625 C 1271.917969 870.53125 1267.09375 844.332031 1248.066406 831.222656 Z M 756.265625 535.859375 C 717.632812 512.902344 679.753906 488.636719 642.261719 464.027344 C 623.394531 451.789062 604.914062 439.210938 586.1875 426.765625 L 530.539062 388.886719 L 475.320312 350.386719 L 468.460938 345.507812 L 465.050781 343.15625 L 463.394531 342.015625 C 463.1875 341.875 462.980469 341.730469 462.773438 341.589844 C 461.875 341.121094 460.796875 341.140625 459.78125 341.507812 C 459.289062 341.78125 458.867188 341.949219 458.511719 342.464844 L 458.296875 342.773438 L 457.726562 343.601562 L 456.515625 345.359375 C 450.070312 354.492188 443.453125 363.660156 436.902344 372.722656 C 410.640625 409.070312 383.785156 445.171875 355.972656 480.453125 C 378.925781 441.820312 403.191406 403.941406 427.800781 366.449219 C 433.9375 357.105469 440.039062 347.582031 446.378906 338.378906 L 447.59375 336.621094 L 448.234375 335.6875 C 448.519531 335.273438 448.875 334.757812 449.261719 334.414062 C 450.753906 332.695312 452.550781 331.191406 454.621094 330.175781 C 458.765625 328.152344 463.609375 327.980469 467.972656 329.613281 C 469.046875 330.050781 470.050781 330.585938 470.980469 331.230469 L 472.738281 332.441406 L 476.222656 334.6875 L 483.222656 339.359375 L 538.871094 377.238281 L 594.089844 415.742188 C 612.386719 428.804688 630.726562 441.589844 648.882812 454.863281 C 684.988281 481.261719 721.054688 507.941406 756.265625 535.859375 Z M 756.265625 535.859375 " fill-opacity="1" fill-rule="nonzero"/></g></g></g><g clip-path="url(#869ff648b8)"><g clip-path="url(#a0e7d9ad5e)"><g clip-path="url(#6194c48c87)"><path fill="#b10f16" d="M 1276.851562 912.515625 L 1265.683594 904.820312 L 1173.695312 1038.335938 L 1184.867188 1046.03125 C 1192.828125 1051.519531 1203.832031 1049.492188 1209.320312 1041.527344 L 1281.285156 937.074219 C 1286.84375 929.007812 1284.816406 918.003906 1276.851562 912.515625 Z M 1276.851562 912.515625 " fill-opacity="1" fill-rule="nonzero"/></g></g></g><g clip-path="url(#2fd9783eec)"><g clip-path="url(#1e36b132e8)"><g clip-path="url(#293d040582)"><path fill="#b10f16" d="M 1499.578125 1096.160156 C 1493.558594 1075.234375 1478.59375 1058.214844 1458.558594 1049.445312 L 1367.503906 1010.046875 C 1337.292969 997.011719 1310.003906 977.296875 1287.976562 952.816406 L 1226.558594 1041.964844 C 1243.457031 1048.425781 1259.5625 1056.925781 1274.457031 1067.1875 C 1286.660156 1075.59375 1298.078125 1085.140625 1308.4375 1095.785156 L 1377.6875 1166.828125 C 1392.949219 1182.527344 1414.183594 1190.445312 1435.949219 1188.515625 C 1457.644531 1186.6875 1477.292969 1175.210938 1489.621094 1157.320312 C 1501.949219 1139.429688 1505.597656 1117.085938 1499.578125 1096.160156 Z M 1465.933594 1150.304688 C 1457.921875 1157.289062 1447.238281 1161.0625 1437.503906 1159.695312 C 1446.144531 1155.125 1452.953125 1149.445312 1457.761719 1142.691406 C 1462.566406 1135.933594 1465.503906 1128.351562 1466.421875 1120.597656 C 1467.238281 1112.769531 1466.285156 1104.640625 1463.089844 1097.101562 C 1459.964844 1089.457031 1454.675781 1082.304688 1447.25 1075.816406 C 1457.09375 1076.804688 1466.6875 1082.804688 1472.789062 1091.429688 C 1479.171875 1100.097656 1481.789062 1111.355469 1480.714844 1122.207031 C 1479.261719 1132.949219 1473.847656 1143.25 1465.933594 1150.304688 Z M 1465.933594 1150.304688 " fill-opacity="1" fill-rule="nonzero"/></g></g></g><g clip-path="url(#6905b7e7da)"><g clip-path="url(#4df6054ab7)"><g clip-path="url(#859427f892)"><path fill="#b10f16" d="M 274.660156 257.128906 L 205.410156 186.085938 C 201.980469 182.65625 198.4375 179.605469 194.507812 176.898438 C 180.753906 167.421875 164.132812 162.984375 147.148438 164.398438 C 125.449219 166.226562 105.800781 177.703125 93.476562 195.59375 C 81.078125 213.589844 77.425781 235.933594 83.449219 256.855469 C 89.46875 277.78125 104.433594 294.800781 124.46875 303.570312 L 215.519531 342.96875 C 245.734375 356.007812 273.023438 375.722656 295.046875 400.199219 L 356.46875 311.050781 C 325.75 299.191406 297.605469 280.714844 274.660156 257.128906 Z M 184.867188 205.941406 C 176.160156 201.316406 167.589844 198.921875 159.339844 198.726562 C 151.050781 198.355469 143.21875 200.429688 136.195312 203.980469 C 129.207031 207.707031 123.238281 213.046875 118.636719 219.945312 C 114.039062 226.84375 111.054688 235.15625 109.964844 244.929688 C 105.292969 236.21875 104.835938 224.925781 108.613281 215.019531 C 112.28125 205.042969 119.976562 196.3125 129.703125 191.269531 C 139.355469 186.332031 150.910156 184.835938 161.28125 187.710938 C 171.449219 190.445312 180.4375 197.097656 184.867188 205.941406 Z M 184.867188 205.941406 " fill-opacity="1" fill-rule="nonzero"/></g></g></g><g clip-path="url(#5df55bcd6d)"><g clip-path="url(#7744d5c5a6)"><g clip-path="url(#9c3c6306b8)"><path fill="#b10f16" d="M 373.53125 311.519531 L 301.566406 415.976562 C 296.078125 423.9375 298.105469 434.945312 306.070312 440.429688 L 317.238281 448.125 L 409.152344 314.710938 L 397.984375 307.015625 C 390.019531 301.53125 379.089844 303.453125 373.53125 311.519531 Z M 373.53125 311.519531 " fill-opacity="1" fill-rule="nonzero"/></g></g></g></svg>