<svg xmlns="http://www.w3.org/2000/svg" xmlns:xlink="http://www.w3.org/1999/xlink" width="2000" zoomAndPan="magnify" viewBox="0 0 1500 1499.999933" height="2000" preserveAspectRatio="xMidYMid meet" version="1.0"><defs><filter x="0%" y="0%" width="100%" height="100%" id="7fb5a32fba"><feColorMatrix values="0 0 0 0 1 0 0 0 0 1 0 0 0 0 1 0 0 0 1 0" color-interpolation-filters="sRGB"/></filter><g/><clipPath id="2abe1d12b2"><path d="M 750 0 C 335.785156 0 0 335.785156 0 750 C 0 1164.214844 335.785156 1500 750 1500 C 1164.214844 1500 1500 1164.214844 1500 750 C 1500 335.785156 1164.214844 0 750 0 Z M 750 0 " clip-rule="nonzero"/></clipPath><mask id="f1f801cb80"><g filter="url(#7fb5a32fba)"><rect x="-150" width="1800" fill="#000000" y="-149.999993" height="1799.99992" fill-opacity="0.9"/></g></mask><clipPath id="19db200ba0"><rect x="0" width="440" y="0" height="219"/></clipPath><clipPath id="dbed2a22ff"><path d="M 541.46875 975.492188 L 961.433594 975.492188 L 961.433594 1005.984375 L 541.46875 1005.984375 Z M 541.46875 975.492188 " clip-rule="nonzero"/></clipPath><clipPath id="bc6c7ffe8c"><path d="M 0.46875 0.492188 L 420.433594 0.492188 L 420.433594 30.984375 L 0.46875 30.984375 Z M 0.46875 0.492188 " clip-rule="nonzero"/></clipPath><clipPath id="6249a24ad7"><rect x="0" width="421" y="0" height="31"/></clipPath><clipPath id="4015c007ef"><path d="M 479 865.199219 L 1021 865.199219 L 1021 1006 L 479 1006 Z M 479 865.199219 " clip-rule="nonzero"/></clipPath></defs><g clip-path="url(#2abe1d12b2)"><path stroke-linecap="butt" transform="matrix(0.75, 0, 0, 0.75, 0.00003335, -0.00002)" fill="none" stroke-linejoin="miter" d="M 999.999978 0.0000266667 C 447.713507 0.0000266667 -0.0000444667 447.713578 -0.0000444667 1000.000049 C -0.0000444667 1552.286519 447.713507 2000.000071 999.999978 2000.000071 C 1552.286448 2000.000071 2000 1552.286519 2000 1000.000049 C 2000 447.713578 1552.286448 0.0000266667 999.999978 0.0000266667 Z M 999.999978 0.0000266667 " stroke="#b10f16" stroke-width="40" stroke-opacity="1" stroke-miterlimit="4"/></g><g fill="#b10f16" fill-opacity="1"><g transform="translate(306.375007, 514.661273)"><g><path d="M 138.859375 -223.96875 C 142.585938 -223.96875 145.597656 -224.523438 147.890625 -225.640625 C 150.191406 -226.765625 152.21875 -227.859375 153.96875 -228.921875 C 155.726562 -229.992188 157.675781 -230.53125 159.8125 -230.53125 C 162.375 -230.53125 164.347656 -229.832031 165.734375 -228.4375 C 167.117188 -227.050781 168.238281 -224.816406 169.09375 -221.734375 L 181.578125 -175.96875 C 182.210938 -173.84375 182.023438 -172.082031 181.015625 -170.6875 C 180.003906 -169.300781 178.429688 -168.394531 176.296875 -167.96875 C 174.484375 -167.65625 172.773438 -167.867188 171.171875 -168.609375 C 169.578125 -169.359375 168.242188 -170.851562 167.171875 -173.09375 C 163.546875 -181.09375 160.1875 -187.597656 157.09375 -192.609375 C 154 -197.617188 150.878906 -201.429688 147.734375 -204.046875 C 144.585938 -206.660156 141.148438 -208.445312 137.421875 -209.40625 C 133.691406 -210.363281 129.316406 -210.84375 124.296875 -210.84375 L 80.140625 -210.84375 L 80.140625 -113.109375 L 119.65625 -113.109375 C 124.03125 -113.109375 127.5 -113.613281 130.0625 -114.625 C 132.625 -115.632812 134.570312 -117.5 135.90625 -120.21875 C 137.238281 -122.9375 138.273438 -126.804688 139.015625 -131.828125 C 139.972656 -135.765625 142.054688 -137.894531 145.265625 -138.21875 C 148.992188 -138.539062 151.335938 -136.675781 152.296875 -132.625 L 163.8125 -86.703125 C 164.882812 -82.441406 163.660156 -79.722656 160.140625 -78.546875 C 156.398438 -77.585938 153.359375 -78.972656 151.015625 -82.703125 C 148.453125 -87.398438 146.078125 -91 143.890625 -93.5 C 141.710938 -96.007812 139.234375 -97.71875 136.453125 -98.625 C 133.679688 -99.53125 130.109375 -99.984375 125.734375 -99.984375 L 80.140625 -99.984375 L 80.140625 -23.03125 C 80.140625 -18.019531 82.804688 -15.140625 88.140625 -14.390625 L 104.296875 -12.484375 C 108.671875 -11.734375 110.859375 -9.546875 110.859375 -5.921875 C 110.859375 -1.972656 108.25 0 103.03125 0 L 26.078125 0 C 20.847656 0 18.234375 -1.972656 18.234375 -5.921875 C 18.234375 -7.515625 18.6875 -8.84375 19.59375 -9.90625 C 20.5 -10.976562 22.070312 -11.835938 24.3125 -12.484375 L 34.71875 -14.390625 C 40.050781 -15.671875 42.71875 -18.550781 42.71875 -23.03125 L 42.71875 -200.9375 C 42.71875 -205.414062 40.050781 -208.289062 34.71875 -209.5625 L 24.3125 -211.484375 C 22.070312 -212.128906 20.5 -212.984375 19.59375 -214.046875 C 18.6875 -215.109375 18.234375 -216.441406 18.234375 -218.046875 C 18.234375 -221.992188 20.847656 -223.96875 26.078125 -223.96875 Z M 138.859375 -223.96875 "/></g></g></g><g fill="#b10f16" fill-opacity="1"><g transform="translate(497.39003, 514.661273)"><g><path d="M 205.734375 -147.8125 C 205.734375 -138.644531 203.914062 -130.222656 200.28125 -122.546875 C 196.65625 -114.867188 191.507812 -108.253906 184.84375 -102.703125 C 178.1875 -97.160156 170.21875 -92.894531 160.9375 -89.90625 L 203.484375 -23.84375 C 205.410156 -20.851562 207.546875 -18.476562 209.890625 -16.71875 C 212.234375 -14.957031 215.429688 -13.597656 219.484375 -12.640625 C 223.222656 -11.785156 225.675781 -10.847656 226.84375 -9.828125 C 228.019531 -8.816406 228.609375 -7.515625 228.609375 -5.921875 C 228.609375 -1.972656 225.832031 0 220.28125 0 L 157.890625 0 C 152.554688 0 149.890625 -1.972656 149.890625 -5.921875 C 149.890625 -8.160156 151.546875 -9.8125 154.859375 -10.875 L 160.78125 -12.15625 C 163.226562 -12.90625 164.640625 -14.023438 165.015625 -15.515625 C 165.390625 -17.003906 164.722656 -19.082031 163.015625 -21.75 L 125.265625 -82.875 C 124.191406 -82.757812 123.125 -82.675781 122.0625 -82.625 C 121 -82.570312 119.878906 -82.546875 118.703125 -82.546875 C 104.085938 -82.546875 91.179688 -84.625 79.984375 -88.78125 L 79.984375 -23.03125 C 79.984375 -18.550781 82.382812 -15.671875 87.1875 -14.390625 L 101.421875 -12.484375 C 103.765625 -11.734375 105.363281 -10.847656 106.21875 -9.828125 C 107.070312 -8.816406 107.5 -7.515625 107.5 -5.921875 C 107.5 -1.972656 104.890625 0 99.671875 0 L 25.921875 0 C 20.585938 0 17.921875 -1.972656 17.921875 -5.921875 C 17.921875 -9.117188 20 -11.304688 24.15625 -12.484375 L 34.5625 -14.390625 C 39.882812 -15.785156 42.546875 -18.664062 42.546875 -23.03125 L 42.546875 -200.9375 C 42.546875 -205.414062 39.882812 -208.289062 34.5625 -209.5625 L 24.15625 -211.484375 C 20 -212.660156 17.921875 -214.847656 17.921875 -218.046875 C 17.921875 -221.992188 20.585938 -223.96875 25.921875 -223.96875 L 99.03125 -223.96875 C 116.195312 -223.96875 131.390625 -222.097656 144.609375 -218.359375 C 157.835938 -214.628906 168.984375 -209.320312 178.046875 -202.4375 C 187.117188 -195.5625 194 -187.507812 198.6875 -178.28125 C 203.382812 -169.0625 205.734375 -158.90625 205.734375 -147.8125 Z M 79.984375 -211.65625 L 79.984375 -101.109375 C 89.585938 -97.585938 100.519531 -95.828125 112.78125 -95.828125 C 129.632812 -95.828125 142.832031 -100.28125 152.375 -109.1875 C 161.925781 -118.09375 166.703125 -130.914062 166.703125 -147.65625 C 166.703125 -160.03125 163.898438 -171.039062 158.296875 -180.6875 C 152.691406 -190.34375 144.742188 -197.914062 134.453125 -203.40625 C 124.160156 -208.90625 111.976562 -211.65625 97.90625 -211.65625 Z M 79.984375 -211.65625 "/></g></g></g><g fill="#b10f16" fill-opacity="1"><g transform="translate(726.320093, 514.661273)"><g><path d="M 71.03125 -5.921875 C 71.03125 -1.972656 68.3125 0 62.875 0 L 13.28125 0 C 7.84375 0 5.125 -1.921875 5.125 -5.765625 C 5.125 -7.148438 5.519531 -8.296875 6.3125 -9.203125 C 7.113281 -10.109375 8.6875 -11.039062 11.03125 -12 L 17.125 -14.078125 C 19.25 -14.929688 20.953125 -15.941406 22.234375 -17.109375 C 23.515625 -18.285156 24.660156 -19.992188 25.671875 -22.234375 C 26.691406 -24.472656 27.835938 -27.566406 29.109375 -31.515625 L 85.421875 -199.328125 C 86.597656 -203.171875 86.863281 -205.914062 86.21875 -207.5625 C 85.582031 -209.21875 83.347656 -210.523438 79.515625 -211.484375 C 76.523438 -212.335938 74.441406 -213.296875 73.265625 -214.359375 C 72.097656 -215.429688 71.515625 -216.710938 71.515625 -218.203125 C 71.515625 -222.046875 74.285156 -223.96875 79.828125 -223.96875 L 146.21875 -223.96875 C 151.757812 -223.96875 154.53125 -222.101562 154.53125 -218.375 C 154.53125 -216.664062 153.941406 -215.300781 152.765625 -214.28125 C 151.597656 -213.269531 149.628906 -212.394531 146.859375 -211.65625 C 143.765625 -210.90625 141.921875 -209.890625 141.328125 -208.609375 C 140.742188 -207.328125 140.9375 -205.140625 141.90625 -202.046875 L 201.25 -27.203125 C 202.738281 -22.828125 204.441406 -19.546875 206.359375 -17.359375 C 208.285156 -15.171875 211.171875 -13.648438 215.015625 -12.796875 C 217.992188 -11.835938 219.988281 -10.847656 221 -9.828125 C 222.019531 -8.816406 222.53125 -7.515625 222.53125 -5.921875 C 222.53125 -1.972656 219.753906 0 214.203125 0 L 150.53125 0 C 145.09375 0 142.375 -1.972656 142.375 -5.921875 C 142.375 -8.691406 144.457031 -10.71875 148.625 -12 L 159.96875 -13.765625 C 162.75 -14.398438 164.164062 -15.597656 164.21875 -17.359375 C 164.269531 -19.117188 163.65625 -21.972656 162.375 -25.921875 L 145.734375 -75.34375 L 60.46875 -75.34375 L 46.546875 -33.28125 C 44.628906 -27.40625 44.175781 -23.109375 45.1875 -20.390625 C 46.207031 -17.671875 49.171875 -15.460938 54.078125 -13.765625 L 64.796875 -11.84375 C 68.953125 -10.5625 71.03125 -8.585938 71.03125 -5.921875 Z M 65.109375 -89.109375 L 141.265625 -89.109375 L 103.1875 -203.171875 Z M 65.109375 -89.109375 "/></g></g></g><g fill="#b10f16" fill-opacity="1"><g transform="translate(955.090121, 514.661273)"><g><path d="M 188.453125 -94.21875 L 182.859375 -196.125 C 182.640625 -200.070312 181.570312 -203.140625 179.65625 -205.328125 C 177.738281 -207.515625 174.644531 -209.035156 170.375 -209.890625 L 161.578125 -211.328125 C 158.585938 -211.960938 156.554688 -212.835938 155.484375 -213.953125 C 154.421875 -215.078125 153.890625 -216.441406 153.890625 -218.046875 C 153.890625 -219.859375 154.582031 -221.296875 155.96875 -222.359375 C 157.363281 -223.429688 159.285156 -223.96875 161.734375 -223.96875 L 218.6875 -223.96875 C 221.25 -223.96875 223.195312 -223.429688 224.53125 -222.359375 C 225.863281 -221.296875 226.53125 -219.859375 226.53125 -218.046875 C 226.53125 -216.335938 225.96875 -214.945312 224.84375 -213.875 C 223.726562 -212.8125 221.726562 -211.960938 218.84375 -211.328125 L 210.6875 -210.046875 C 205.675781 -208.984375 202.289062 -207.222656 200.53125 -204.765625 C 198.769531 -202.316406 197.992188 -199.171875 198.203125 -195.328125 L 203.96875 -93.90625 C 204.394531 -88.570312 204.738281 -83.34375 205 -78.21875 C 205.269531 -73.101562 205.457031 -67.773438 205.5625 -62.234375 C 206.101562 -49.109375 203.304688 -37.453125 197.171875 -27.265625 C 191.035156 -17.085938 181.78125 -9.09375 169.40625 -3.28125 C 157.039062 2.53125 141.578125 5.4375 123.015625 5.4375 C 103.398438 5.4375 86.953125 2.664062 73.671875 -2.875 C 60.390625 -8.425781 50.441406 -16.238281 43.828125 -26.3125 C 37.222656 -36.394531 34.078125 -48.207031 34.390625 -61.75 C 34.503906 -66.125 34.769531 -72.039062 35.1875 -79.5 C 35.613281 -86.96875 36.039062 -94.753906 36.46875 -102.859375 L 41.75 -199.65625 C 41.96875 -202.75 41.195312 -205.039062 39.4375 -206.53125 C 37.675781 -208.019531 34.929688 -209.140625 31.203125 -209.890625 L 22.390625 -211.328125 C 19.617188 -211.859375 17.617188 -212.679688 16.390625 -213.796875 C 15.171875 -214.921875 14.5625 -216.335938 14.5625 -218.046875 C 14.5625 -219.859375 15.253906 -221.296875 16.640625 -222.359375 C 18.023438 -223.429688 20 -223.96875 22.5625 -223.96875 L 98.21875 -223.96875 C 100.675781 -223.96875 102.597656 -223.429688 103.984375 -222.359375 C 105.367188 -221.296875 106.0625 -219.859375 106.0625 -218.046875 C 106.0625 -216.335938 105.472656 -214.945312 104.296875 -213.875 C 103.128906 -212.8125 101.160156 -212.015625 98.390625 -211.484375 L 89.421875 -209.890625 C 86.117188 -209.242188 83.664062 -208.175781 82.0625 -206.6875 C 80.46875 -205.195312 79.5625 -202.90625 79.34375 -199.8125 L 74.0625 -103.5 C 73.632812 -95.71875 73.316406 -88.679688 73.109375 -82.390625 C 72.898438 -76.097656 72.738281 -70.285156 72.625 -64.953125 C 72.195312 -46.503906 77.15625 -32.691406 87.5 -23.515625 C 97.851562 -14.347656 112.203125 -9.765625 130.546875 -9.765625 C 143.128906 -9.765625 153.898438 -11.867188 162.859375 -16.078125 C 171.816406 -20.285156 178.664062 -26.304688 183.40625 -34.140625 C 188.15625 -41.984375 190.316406 -51.347656 189.890625 -62.234375 C 189.785156 -69.484375 189.570312 -75.5625 189.25 -80.46875 C 188.925781 -85.375 188.660156 -89.957031 188.453125 -94.21875 Z M 188.453125 -94.21875 "/></g></g></g><g fill="#b10f16" fill-opacity="1"><g transform="translate(163.992206, 801.911249)"><g><path d="M 203.484375 -143.65625 C 203.484375 -130.007812 200.015625 -118.144531 193.078125 -108.0625 C 186.148438 -97.988281 176.445312 -90.203125 163.96875 -84.703125 C 151.5 -79.210938 136.890625 -76.46875 120.140625 -76.46875 C 112.671875 -76.46875 105.578125 -76.972656 98.859375 -77.984375 C 92.140625 -79.003906 85.898438 -80.472656 80.140625 -82.390625 L 80.140625 -23.03125 C 80.140625 -18.019531 82.804688 -15.140625 88.140625 -14.390625 L 104.296875 -12.484375 C 108.671875 -11.734375 110.859375 -9.546875 110.859375 -5.921875 C 110.859375 -1.972656 108.25 0 103.03125 0 L 26.078125 0 C 20.847656 0 18.234375 -1.972656 18.234375 -5.921875 C 18.234375 -7.515625 18.6875 -8.84375 19.59375 -9.90625 C 20.5 -10.976562 22.070312 -11.835938 24.3125 -12.484375 L 34.71875 -14.390625 C 40.050781 -15.671875 42.71875 -18.550781 42.71875 -23.03125 L 42.71875 -200.9375 C 42.71875 -205.414062 40.050781 -208.289062 34.71875 -209.5625 L 24.3125 -211.484375 C 22.070312 -212.128906 20.5 -212.984375 19.59375 -214.046875 C 18.6875 -215.109375 18.234375 -216.441406 18.234375 -218.046875 C 18.234375 -221.992188 20.847656 -223.96875 26.078125 -223.96875 L 97.90625 -223.96875 C 114.539062 -223.96875 129.390625 -221.992188 142.453125 -218.046875 C 155.523438 -214.097656 166.59375 -208.523438 175.65625 -201.328125 C 184.71875 -194.128906 191.617188 -185.625 196.359375 -175.8125 C 201.109375 -166 203.484375 -155.28125 203.484375 -143.65625 Z M 80.140625 -211.015625 L 80.140625 -95.03125 C 84.835938 -93.320312 89.828125 -92.066406 95.109375 -91.265625 C 100.390625 -90.460938 105.75 -90.0625 111.1875 -90.0625 C 122.0625 -90.0625 131.628906 -92.222656 139.890625 -96.546875 C 148.160156 -100.867188 154.613281 -107.109375 159.25 -115.265625 C 163.894531 -123.421875 166.21875 -133.207031 166.21875 -144.625 C 166.21875 -157.945312 163.414062 -169.59375 157.8125 -179.5625 C 152.21875 -189.539062 144.242188 -197.273438 133.890625 -202.765625 C 123.546875 -208.265625 111.234375 -211.015625 96.953125 -211.015625 Z M 80.140625 -211.015625 "/></g></g></g><g fill="#b10f16" fill-opacity="1"><g transform="translate(361.086414, 801.911249)"><g><path d="M 71.03125 -5.921875 C 71.03125 -1.972656 68.3125 0 62.875 0 L 13.28125 0 C 7.84375 0 5.125 -1.921875 5.125 -5.765625 C 5.125 -7.148438 5.519531 -8.296875 6.3125 -9.203125 C 7.113281 -10.109375 8.6875 -11.039062 11.03125 -12 L 17.125 -14.078125 C 19.25 -14.929688 20.953125 -15.941406 22.234375 -17.109375 C 23.515625 -18.285156 24.660156 -19.992188 25.671875 -22.234375 C 26.691406 -24.472656 27.835938 -27.566406 29.109375 -31.515625 L 85.421875 -199.328125 C 86.597656 -203.171875 86.863281 -205.914062 86.21875 -207.5625 C 85.582031 -209.21875 83.347656 -210.523438 79.515625 -211.484375 C 76.523438 -212.335938 74.441406 -213.296875 73.265625 -214.359375 C 72.097656 -215.429688 71.515625 -216.710938 71.515625 -218.203125 C 71.515625 -222.046875 74.285156 -223.96875 79.828125 -223.96875 L 146.21875 -223.96875 C 151.757812 -223.96875 154.53125 -222.101562 154.53125 -218.375 C 154.53125 -216.664062 153.941406 -215.300781 152.765625 -214.28125 C 151.597656 -213.269531 149.628906 -212.394531 146.859375 -211.65625 C 143.765625 -210.90625 141.921875 -209.890625 141.328125 -208.609375 C 140.742188 -207.328125 140.9375 -205.140625 141.90625 -202.046875 L 201.25 -27.203125 C 202.738281 -22.828125 204.441406 -19.546875 206.359375 -17.359375 C 208.285156 -15.171875 211.171875 -13.648438 215.015625 -12.796875 C 217.992188 -11.835938 219.988281 -10.847656 221 -9.828125 C 222.019531 -8.816406 222.53125 -7.515625 222.53125 -5.921875 C 222.53125 -1.972656 219.753906 0 214.203125 0 L 150.53125 0 C 145.09375 0 142.375 -1.972656 142.375 -5.921875 C 142.375 -8.691406 144.457031 -10.71875 148.625 -12 L 159.96875 -13.765625 C 162.75 -14.398438 164.164062 -15.597656 164.21875 -17.359375 C 164.269531 -19.117188 163.65625 -21.972656 162.375 -25.921875 L 145.734375 -75.34375 L 60.46875 -75.34375 L 46.546875 -33.28125 C 44.628906 -27.40625 44.175781 -23.109375 45.1875 -20.390625 C 46.207031 -17.671875 49.171875 -15.460938 54.078125 -13.765625 L 64.796875 -11.84375 C 68.953125 -10.5625 71.03125 -8.585938 71.03125 -5.921875 Z M 65.109375 -89.109375 L 141.265625 -89.109375 L 103.1875 -203.171875 Z M 65.109375 -89.109375 "/></g></g></g><g fill="#b10f16" fill-opacity="1"><g transform="translate(589.856397, 801.911249)"><g><path d="M 205.734375 -147.8125 C 205.734375 -138.644531 203.914062 -130.222656 200.28125 -122.546875 C 196.65625 -114.867188 191.507812 -108.253906 184.84375 -102.703125 C 178.1875 -97.160156 170.21875 -92.894531 160.9375 -89.90625 L 203.484375 -23.84375 C 205.410156 -20.851562 207.546875 -18.476562 209.890625 -16.71875 C 212.234375 -14.957031 215.429688 -13.597656 219.484375 -12.640625 C 223.222656 -11.785156 225.675781 -10.847656 226.84375 -9.828125 C 228.019531 -8.816406 228.609375 -7.515625 228.609375 -5.921875 C 228.609375 -1.972656 225.832031 0 220.28125 0 L 157.890625 0 C 152.554688 0 149.890625 -1.972656 149.890625 -5.921875 C 149.890625 -8.160156 151.546875 -9.8125 154.859375 -10.875 L 160.78125 -12.15625 C 163.226562 -12.90625 164.640625 -14.023438 165.015625 -15.515625 C 165.390625 -17.003906 164.722656 -19.082031 163.015625 -21.75 L 125.265625 -82.875 C 124.191406 -82.757812 123.125 -82.675781 122.0625 -82.625 C 121 -82.570312 119.878906 -82.546875 118.703125 -82.546875 C 104.085938 -82.546875 91.179688 -84.625 79.984375 -88.78125 L 79.984375 -23.03125 C 79.984375 -18.550781 82.382812 -15.671875 87.1875 -14.390625 L 101.421875 -12.484375 C 103.765625 -11.734375 105.363281 -10.847656 106.21875 -9.828125 C 107.070312 -8.816406 107.5 -7.515625 107.5 -5.921875 C 107.5 -1.972656 104.890625 0 99.671875 0 L 25.921875 0 C 20.585938 0 17.921875 -1.972656 17.921875 -5.921875 C 17.921875 -9.117188 20 -11.304688 24.15625 -12.484375 L 34.5625 -14.390625 C 39.882812 -15.785156 42.546875 -18.664062 42.546875 -23.03125 L 42.546875 -200.9375 C 42.546875 -205.414062 39.882812 -208.289062 34.5625 -209.5625 L 24.15625 -211.484375 C 20 -212.660156 17.921875 -214.847656 17.921875 -218.046875 C 17.921875 -221.992188 20.585938 -223.96875 25.921875 -223.96875 L 99.03125 -223.96875 C 116.195312 -223.96875 131.390625 -222.097656 144.609375 -218.359375 C 157.835938 -214.628906 168.984375 -209.320312 178.046875 -202.4375 C 187.117188 -195.5625 194 -187.507812 198.6875 -178.28125 C 203.382812 -169.0625 205.734375 -158.90625 205.734375 -147.8125 Z M 79.984375 -211.65625 L 79.984375 -101.109375 C 89.585938 -97.585938 100.519531 -95.828125 112.78125 -95.828125 C 129.632812 -95.828125 142.832031 -100.28125 152.375 -109.1875 C 161.925781 -118.09375 166.703125 -130.914062 166.703125 -147.65625 C 166.703125 -160.03125 163.898438 -171.039062 158.296875 -180.6875 C 152.691406 -190.34375 144.742188 -197.914062 134.453125 -203.40625 C 124.160156 -208.90625 111.976562 -211.65625 97.90625 -211.65625 Z M 79.984375 -211.65625 "/></g></g></g><g fill="#b10f16" fill-opacity="1"><g transform="translate(818.78646, 801.911249)"><g><path d="M 77.421875 -6.078125 C 77.421875 -4.265625 76.726562 -2.796875 75.34375 -1.671875 C 73.957031 -0.554688 71.878906 0 69.109375 0 L 16.953125 0 C 11.410156 0 8.640625 -1.972656 8.640625 -5.921875 C 8.640625 -7.734375 9.28125 -9.117188 10.5625 -10.078125 C 11.84375 -11.035156 13.492188 -11.835938 15.515625 -12.484375 L 23.203125 -14.875 C 27.035156 -16.050781 29.9375 -17.757812 31.90625 -20 C 33.882812 -22.238281 35.085938 -25.488281 35.515625 -29.75 L 49.90625 -194.6875 C 50.332031 -198.957031 49.742188 -202.265625 48.140625 -204.609375 C 46.546875 -206.953125 43.832031 -208.550781 40 -209.40625 L 31.515625 -211.171875 C 29.054688 -211.804688 27.296875 -212.65625 26.234375 -213.71875 C 25.171875 -214.789062 24.640625 -216.179688 24.640625 -217.890625 C 24.640625 -221.941406 27.460938 -223.96875 33.109375 -223.96875 L 70.390625 -223.96875 C 74.234375 -223.96875 77.300781 -223.242188 79.59375 -221.796875 C 81.882812 -220.359375 83.828125 -217.507812 85.421875 -213.25 L 146.21875 -65.265625 L 205.09375 -212.453125 C 206.6875 -216.710938 208.65625 -219.695312 211 -221.40625 C 213.351562 -223.113281 216.503906 -223.96875 220.453125 -223.96875 L 258.359375 -223.96875 C 263.910156 -223.96875 266.6875 -221.992188 266.6875 -218.046875 C 266.6875 -214.953125 264.550781 -212.820312 260.28125 -211.65625 L 251.15625 -209.40625 C 247.21875 -208.34375 244.582031 -206.847656 243.25 -204.921875 C 241.914062 -203.003906 241.40625 -199.703125 241.71875 -195.015625 L 254.84375 -25.59375 C 255.050781 -21.96875 255.875 -19.4375 257.3125 -18 C 258.757812 -16.5625 261.242188 -15.414062 264.765625 -14.5625 L 273.5625 -12.3125 C 277.613281 -11.25 279.640625 -9.171875 279.640625 -6.078125 C 279.640625 -4.367188 278.945312 -2.925781 277.5625 -1.75 C 276.175781 -0.582031 274.09375 0 271.3125 0 L 200.765625 0 C 195.222656 0 192.453125 -1.972656 192.453125 -5.921875 C 192.453125 -7.410156 192.929688 -8.6875 193.890625 -9.75 C 194.847656 -10.820312 196.5 -11.675781 198.84375 -12.3125 L 207.65625 -14.5625 C 211.8125 -15.519531 214.582031 -16.796875 215.96875 -18.390625 C 217.351562 -19.992188 217.941406 -22.34375 217.734375 -25.4375 L 205.890625 -172.453125 L 145.734375 -21.28125 C 144.347656 -17.332031 142.878906 -14.769531 141.328125 -13.59375 C 139.785156 -12.425781 137.945312 -11.84375 135.8125 -11.84375 C 133.46875 -11.84375 131.46875 -12.398438 129.8125 -13.515625 C 128.164062 -14.640625 126.4375 -17.332031 124.625 -21.59375 L 63.03125 -171.328125 L 50.71875 -29.59375 C 50.289062 -25.332031 51.140625 -22.132812 53.265625 -20 C 55.398438 -17.863281 58.546875 -16.050781 62.703125 -14.5625 L 71.984375 -11.84375 C 73.585938 -11.195312 74.894531 -10.445312 75.90625 -9.59375 C 76.914062 -8.738281 77.421875 -7.566406 77.421875 -6.078125 Z M 77.421875 -6.078125 "/></g></g></g><g fill="#b10f16" fill-opacity="1"><g transform="translate(1107.228725, 801.911249)"><g><path d="M 71.03125 -5.921875 C 71.03125 -1.972656 68.3125 0 62.875 0 L 13.28125 0 C 7.84375 0 5.125 -1.921875 5.125 -5.765625 C 5.125 -7.148438 5.519531 -8.296875 6.3125 -9.203125 C 7.113281 -10.109375 8.6875 -11.039062 11.03125 -12 L 17.125 -14.078125 C 19.25 -14.929688 20.953125 -15.941406 22.234375 -17.109375 C 23.515625 -18.285156 24.660156 -19.992188 25.671875 -22.234375 C 26.691406 -24.472656 27.835938 -27.566406 29.109375 -31.515625 L 85.421875 -199.328125 C 86.597656 -203.171875 86.863281 -205.914062 86.21875 -207.5625 C 85.582031 -209.21875 83.347656 -210.523438 79.515625 -211.484375 C 76.523438 -212.335938 74.441406 -213.296875 73.265625 -214.359375 C 72.097656 -215.429688 71.515625 -216.710938 71.515625 -218.203125 C 71.515625 -222.046875 74.285156 -223.96875 79.828125 -223.96875 L 146.21875 -223.96875 C 151.757812 -223.96875 154.53125 -222.101562 154.53125 -218.375 C 154.53125 -216.664062 153.941406 -215.300781 152.765625 -214.28125 C 151.597656 -213.269531 149.628906 -212.394531 146.859375 -211.65625 C 143.765625 -210.90625 141.921875 -209.890625 141.328125 -208.609375 C 140.742188 -207.328125 140.9375 -205.140625 141.90625 -202.046875 L 201.25 -27.203125 C 202.738281 -22.828125 204.441406 -19.546875 206.359375 -17.359375 C 208.285156 -15.171875 211.171875 -13.648438 215.015625 -12.796875 C 217.992188 -11.835938 219.988281 -10.847656 221 -9.828125 C 222.019531 -8.816406 222.53125 -7.515625 222.53125 -5.921875 C 222.53125 -1.972656 219.753906 0 214.203125 0 L 150.53125 0 C 145.09375 0 142.375 -1.972656 142.375 -5.921875 C 142.375 -8.691406 144.457031 -10.71875 148.625 -12 L 159.96875 -13.765625 C 162.75 -14.398438 164.164062 -15.597656 164.21875 -17.359375 C 164.269531 -19.117188 163.65625 -21.972656 162.375 -25.921875 L 145.734375 -75.34375 L 60.46875 -75.34375 L 46.546875 -33.28125 C 44.628906 -27.40625 44.175781 -23.109375 45.1875 -20.390625 C 46.207031 -17.671875 49.171875 -15.460938 54.078125 -13.765625 L 64.796875 -11.84375 C 68.953125 -10.5625 71.03125 -8.585938 71.03125 -5.921875 Z M 65.109375 -89.109375 L 141.265625 -89.109375 L 103.1875 -203.171875 Z M 65.109375 -89.109375 "/></g></g></g><g mask="url(#f1f801cb80)"><g transform="matrix(1, 0, 0, 1, 532, 969)"><g clip-path="url(#19db200ba0)"><g fill="#b10f16" fill-opacity="1"><g transform="translate(0.676003, 82.343561)"><g><path d="M 46.359375 -25.859375 C 46.359375 -17.210938 44.566406 -10.597656 40.984375 -6.015625 C 37.398438 -1.429688 32.160156 0.859375 25.265625 0.859375 C 18.441406 0.859375 13.222656 -1.382812 9.609375 -5.875 C 6.003906 -10.375 4.160156 -16.820312 4.078125 -25.21875 L 4.078125 -36.734375 C 4.078125 -45.460938 5.890625 -52.085938 9.515625 -56.609375 C 13.140625 -61.140625 18.359375 -63.40625 25.171875 -63.40625 C 31.992188 -63.40625 37.207031 -61.164062 40.8125 -56.6875 C 44.414062 -52.207031 46.265625 -45.769531 46.359375 -37.375 Z M 33.9375 -38.5 C 33.9375 -43.675781 33.226562 -47.445312 31.8125 -49.8125 C 30.394531 -52.175781 28.179688 -53.359375 25.171875 -53.359375 C 22.253906 -53.359375 20.097656 -52.234375 18.703125 -49.984375 C 17.316406 -47.734375 16.582031 -44.21875 16.5 -39.4375 L 16.5 -24.234375 C 16.5 -19.128906 17.191406 -15.335938 18.578125 -12.859375 C 19.972656 -10.390625 22.203125 -9.15625 25.265625 -9.15625 C 28.296875 -9.15625 30.484375 -10.34375 31.828125 -12.71875 C 33.179688 -15.09375 33.882812 -18.726562 33.9375 -23.625 Z M 33.9375 -38.5 "/></g></g></g><g fill="#b10f16" fill-opacity="1"><g transform="translate(55.555145, 82.343561)"><g><path d="M 34.40625 0 L 22 0 L 22 -47.859375 L 7.171875 -43.265625 L 7.171875 -53.359375 L 33.078125 -62.640625 L 34.40625 -62.640625 Z M 34.40625 0 "/></g></g></g><g fill="#b10f16" fill-opacity="1"><g transform="translate(110.434286, 82.343561)"><g><path d="M 34.40625 0 L 22 0 L 22 -47.859375 L 7.171875 -43.265625 L 7.171875 -53.359375 L 33.078125 -62.640625 L 34.40625 -62.640625 Z M 34.40625 0 "/></g></g></g><g fill="#b10f16" fill-opacity="1"><g transform="translate(165.313428, 82.343561)"><g><path d="M 46.359375 -25.859375 C 46.359375 -17.210938 44.566406 -10.597656 40.984375 -6.015625 C 37.398438 -1.429688 32.160156 0.859375 25.265625 0.859375 C 18.441406 0.859375 13.222656 -1.382812 9.609375 -5.875 C 6.003906 -10.375 4.160156 -16.820312 4.078125 -25.21875 L 4.078125 -36.734375 C 4.078125 -45.460938 5.890625 -52.085938 9.515625 -56.609375 C 13.140625 -61.140625 18.359375 -63.40625 25.171875 -63.40625 C 31.992188 -63.40625 37.207031 -61.164062 40.8125 -56.6875 C 44.414062 -52.207031 46.265625 -45.769531 46.359375 -37.375 Z M 33.9375 -38.5 C 33.9375 -43.675781 33.226562 -47.445312 31.8125 -49.8125 C 30.394531 -52.175781 28.179688 -53.359375 25.171875 -53.359375 C 22.253906 -53.359375 20.097656 -52.234375 18.703125 -49.984375 C 17.316406 -47.734375 16.582031 -44.21875 16.5 -39.4375 L 16.5 -24.234375 C 16.5 -19.128906 17.191406 -15.335938 18.578125 -12.859375 C 19.972656 -10.390625 22.203125 -9.15625 25.265625 -9.15625 C 28.296875 -9.15625 30.484375 -10.34375 31.828125 -12.71875 C 33.179688 -15.09375 33.882812 -18.726562 33.9375 -23.625 Z M 33.9375 -38.5 "/></g></g></g><g fill="#b10f16" fill-opacity="1"><g transform="translate(220.192569, 82.343561)"><g><path d="M 34.40625 0 L 22 0 L 22 -47.859375 L 7.171875 -43.265625 L 7.171875 -53.359375 L 33.078125 -62.640625 L 34.40625 -62.640625 Z M 34.40625 0 "/></g></g></g><g fill="#b10f16" fill-opacity="1"><g transform="translate(275.0717, 82.343561)"><g><path d="M 34.40625 0 L 22 0 L 22 -47.859375 L 7.171875 -43.265625 L 7.171875 -53.359375 L 33.078125 -62.640625 L 34.40625 -62.640625 Z M 34.40625 0 "/></g></g></g><g fill="#b10f16" fill-opacity="1"><g transform="translate(329.950853, 82.343561)"><g><path d="M 46.359375 -25.859375 C 46.359375 -17.210938 44.566406 -10.597656 40.984375 -6.015625 C 37.398438 -1.429688 32.160156 0.859375 25.265625 0.859375 C 18.441406 0.859375 13.222656 -1.382812 9.609375 -5.875 C 6.003906 -10.375 4.160156 -16.820312 4.078125 -25.21875 L 4.078125 -36.734375 C 4.078125 -45.460938 5.890625 -52.085938 9.515625 -56.609375 C 13.140625 -61.140625 18.359375 -63.40625 25.171875 -63.40625 C 31.992188 -63.40625 37.207031 -61.164062 40.8125 -56.6875 C 44.414062 -52.207031 46.265625 -45.769531 46.359375 -37.375 Z M 33.9375 -38.5 C 33.9375 -43.675781 33.226562 -47.445312 31.8125 -49.8125 C 30.394531 -52.175781 28.179688 -53.359375 25.171875 -53.359375 C 22.253906 -53.359375 20.097656 -52.234375 18.703125 -49.984375 C 17.316406 -47.734375 16.582031 -44.21875 16.5 -39.4375 L 16.5 -24.234375 C 16.5 -19.128906 17.191406 -15.335938 18.578125 -12.859375 C 19.972656 -10.390625 22.203125 -9.15625 25.265625 -9.15625 C 28.296875 -9.15625 30.484375 -10.34375 31.828125 -12.71875 C 33.179688 -15.09375 33.882812 -18.726562 33.9375 -23.625 Z M 33.9375 -38.5 "/></g></g></g><g fill="#b10f16" fill-opacity="1"><g transform="translate(384.830007, 82.343561)"><g><path d="M 34.40625 0 L 22 0 L 22 -47.859375 L 7.171875 -43.265625 L 7.171875 -53.359375 L 33.078125 -62.640625 L 34.40625 -62.640625 Z M 34.40625 0 "/></g></g></g><g fill="#b10f16" fill-opacity="1"><g transform="translate(0.676003, 196.343552)"><g><path d="M 46.359375 -25.859375 C 46.359375 -17.210938 44.566406 -10.597656 40.984375 -6.015625 C 37.398438 -1.429688 32.160156 0.859375 25.265625 0.859375 C 18.441406 0.859375 13.222656 -1.382812 9.609375 -5.875 C 6.003906 -10.375 4.160156 -16.820312 4.078125 -25.21875 L 4.078125 -36.734375 C 4.078125 -45.460938 5.890625 -52.085938 9.515625 -56.609375 C 13.140625 -61.140625 18.359375 -63.40625 25.171875 -63.40625 C 31.992188 -63.40625 37.207031 -61.164062 40.8125 -56.6875 C 44.414062 -52.207031 46.265625 -45.769531 46.359375 -37.375 Z M 33.9375 -38.5 C 33.9375 -43.675781 33.226562 -47.445312 31.8125 -49.8125 C 30.394531 -52.175781 28.179688 -53.359375 25.171875 -53.359375 C 22.253906 -53.359375 20.097656 -52.234375 18.703125 -49.984375 C 17.316406 -47.734375 16.582031 -44.21875 16.5 -39.4375 L 16.5 -24.234375 C 16.5 -19.128906 17.191406 -15.335938 18.578125 -12.859375 C 19.972656 -10.390625 22.203125 -9.15625 25.265625 -9.15625 C 28.296875 -9.15625 30.484375 -10.34375 31.828125 -12.71875 C 33.179688 -15.09375 33.882812 -18.726562 33.9375 -23.625 Z M 33.9375 -38.5 "/></g></g></g><g fill="#b10f16" fill-opacity="1"><g transform="translate(55.555145, 196.343552)"><g><path d="M 34.40625 0 L 22 0 L 22 -47.859375 L 7.171875 -43.265625 L 7.171875 -53.359375 L 33.078125 -62.640625 L 34.40625 -62.640625 Z M 34.40625 0 "/></g></g></g><g fill="#b10f16" fill-opacity="1"><g transform="translate(110.434286, 196.343552)"><g><path d="M 34.40625 0 L 22 0 L 22 -47.859375 L 7.171875 -43.265625 L 7.171875 -53.359375 L 33.078125 -62.640625 L 34.40625 -62.640625 Z M 34.40625 0 "/></g></g></g><g fill="#b10f16" fill-opacity="1"><g transform="translate(165.313428, 196.343552)"><g><path d="M 34.40625 0 L 22 0 L 22 -47.859375 L 7.171875 -43.265625 L 7.171875 -53.359375 L 33.078125 -62.640625 L 34.40625 -62.640625 Z M 34.40625 0 "/></g></g></g><g fill="#b10f16" fill-opacity="1"><g transform="translate(220.192569, 196.343552)"><g><path d="M 46.359375 -25.859375 C 46.359375 -17.210938 44.566406 -10.597656 40.984375 -6.015625 C 37.398438 -1.429688 32.160156 0.859375 25.265625 0.859375 C 18.441406 0.859375 13.222656 -1.382812 9.609375 -5.875 C 6.003906 -10.375 4.160156 -16.820312 4.078125 -25.21875 L 4.078125 -36.734375 C 4.078125 -45.460938 5.890625 -52.085938 9.515625 -56.609375 C 13.140625 -61.140625 18.359375 -63.40625 25.171875 -63.40625 C 31.992188 -63.40625 37.207031 -61.164062 40.8125 -56.6875 C 44.414062 -52.207031 46.265625 -45.769531 46.359375 -37.375 Z M 33.9375 -38.5 C 33.9375 -43.675781 33.226562 -47.445312 31.8125 -49.8125 C 30.394531 -52.175781 28.179688 -53.359375 25.171875 -53.359375 C 22.253906 -53.359375 20.097656 -52.234375 18.703125 -49.984375 C 17.316406 -47.734375 16.582031 -44.21875 16.5 -39.4375 L 16.5 -24.234375 C 16.5 -19.128906 17.191406 -15.335938 18.578125 -12.859375 C 19.972656 -10.390625 22.203125 -9.15625 25.265625 -9.15625 C 28.296875 -9.15625 30.484375 -10.34375 31.828125 -12.71875 C 33.179688 -15.09375 33.882812 -18.726562 33.9375 -23.625 Z M 33.9375 -38.5 "/></g></g></g><g fill="#b10f16" fill-opacity="1"><g transform="translate(275.0717, 196.343552)"><g><path d="M 46.359375 -25.859375 C 46.359375 -17.210938 44.566406 -10.597656 40.984375 -6.015625 C 37.398438 -1.429688 32.160156 0.859375 25.265625 0.859375 C 18.441406 0.859375 13.222656 -1.382812 9.609375 -5.875 C 6.003906 -10.375 4.160156 -16.820312 4.078125 -25.21875 L 4.078125 -36.734375 C 4.078125 -45.460938 5.890625 -52.085938 9.515625 -56.609375 C 13.140625 -61.140625 18.359375 -63.40625 25.171875 -63.40625 C 31.992188 -63.40625 37.207031 -61.164062 40.8125 -56.6875 C 44.414062 -52.207031 46.265625 -45.769531 46.359375 -37.375 Z M 33.9375 -38.5 C 33.9375 -43.675781 33.226562 -47.445312 31.8125 -49.8125 C 30.394531 -52.175781 28.179688 -53.359375 25.171875 -53.359375 C 22.253906 -53.359375 20.097656 -52.234375 18.703125 -49.984375 C 17.316406 -47.734375 16.582031 -44.21875 16.5 -39.4375 L 16.5 -24.234375 C 16.5 -19.128906 17.191406 -15.335938 18.578125 -12.859375 C 19.972656 -10.390625 22.203125 -9.15625 25.265625 -9.15625 C 28.296875 -9.15625 30.484375 -10.34375 31.828125 -12.71875 C 33.179688 -15.09375 33.882812 -18.726562 33.9375 -23.625 Z M 33.9375 -38.5 "/></g></g></g><g fill="#b10f16" fill-opacity="1"><g transform="translate(329.950853, 196.343552)"><g><path d="M 46.359375 -25.859375 C 46.359375 -17.210938 44.566406 -10.597656 40.984375 -6.015625 C 37.398438 -1.429688 32.160156 0.859375 25.265625 0.859375 C 18.441406 0.859375 13.222656 -1.382812 9.609375 -5.875 C 6.003906 -10.375 4.160156 -16.820312 4.078125 -25.21875 L 4.078125 -36.734375 C 4.078125 -45.460938 5.890625 -52.085938 9.515625 -56.609375 C 13.140625 -61.140625 18.359375 -63.40625 25.171875 -63.40625 C 31.992188 -63.40625 37.207031 -61.164062 40.8125 -56.6875 C 44.414062 -52.207031 46.265625 -45.769531 46.359375 -37.375 Z M 33.9375 -38.5 C 33.9375 -43.675781 33.226562 -47.445312 31.8125 -49.8125 C 30.394531 -52.175781 28.179688 -53.359375 25.171875 -53.359375 C 22.253906 -53.359375 20.097656 -52.234375 18.703125 -49.984375 C 17.316406 -47.734375 16.582031 -44.21875 16.5 -39.4375 L 16.5 -24.234375 C 16.5 -19.128906 17.191406 -15.335938 18.578125 -12.859375 C 19.972656 -10.390625 22.203125 -9.15625 25.265625 -9.15625 C 28.296875 -9.15625 30.484375 -10.34375 31.828125 -12.71875 C 33.179688 -15.09375 33.882812 -18.726562 33.9375 -23.625 Z M 33.9375 -38.5 "/></g></g></g><g fill="#b10f16" fill-opacity="1"><g transform="translate(384.830007, 196.343552)"><g><path d="M 46.359375 -25.859375 C 46.359375 -17.210938 44.566406 -10.597656 40.984375 -6.015625 C 37.398438 -1.429688 32.160156 0.859375 25.265625 0.859375 C 18.441406 0.859375 13.222656 -1.382812 9.609375 -5.875 C 6.003906 -10.375 4.160156 -16.820312 4.078125 -25.21875 L 4.078125 -36.734375 C 4.078125 -45.460938 5.890625 -52.085938 9.515625 -56.609375 C 13.140625 -61.140625 18.359375 -63.40625 25.171875 -63.40625 C 31.992188 -63.40625 37.207031 -61.164062 40.8125 -56.6875 C 44.414062 -52.207031 46.265625 -45.769531 46.359375 -37.375 Z M 33.9375 -38.5 C 33.9375 -43.675781 33.226562 -47.445312 31.8125 -49.8125 C 30.394531 -52.175781 28.179688 -53.359375 25.171875 -53.359375 C 22.253906 -53.359375 20.097656 -52.234375 18.703125 -49.984375 C 17.316406 -47.734375 16.582031 -44.21875 16.5 -39.4375 L 16.5 -24.234375 C 16.5 -19.128906 17.191406 -15.335938 18.578125 -12.859375 C 19.972656 -10.390625 22.203125 -9.15625 25.265625 -9.15625 C 28.296875 -9.15625 30.484375 -10.34375 31.828125 -12.71875 C 33.179688 -15.09375 33.882812 -18.726562 33.9375 -23.625 Z M 33.9375 -38.5 "/></g></g></g></g></g></g><g clip-path="url(#dbed2a22ff)"><g transform="matrix(1, 0, 0, 1, 541, 975)"><g clip-path="url(#6249a24ad7)"><g clip-path="url(#bc6c7ffe8c)"><path fill="#ffffff" d="M 420.433594 30.984375 L 0.527344 30.984375 L 0.527344 0.492188 L 420.433594 0.492188 Z M 420.433594 30.984375 " fill-opacity="1" fill-rule="nonzero"/></g></g></g></g><g clip-path="url(#4015c007ef)"><path fill="#b10f16" d="M 998.144531 865.199219 L 501.785156 865.199219 C 489.421875 865.199219 479.339844 875.277344 479.339844 887.644531 L 479.339844 983.542969 C 479.339844 995.90625 489.421875 1005.988281 501.785156 1005.988281 L 998.144531 1005.988281 C 1010.507812 1005.988281 1020.589844 995.90625 1020.589844 983.542969 L 1020.589844 887.644531 C 1020.589844 875.277344 1010.507812 865.199219 998.144531 865.199219 Z M 691.765625 884.351562 C 667.777344 885.964844 643.71875 886.769531 619.726562 887.308594 C 607.695312 887.644531 595.734375 887.710938 583.707031 887.914062 L 547.683594 888.113281 L 511.664062 887.914062 L 507.164062 887.84375 L 503.871094 887.84375 C 503.734375 887.84375 503.601562 887.84375 503.464844 887.84375 C 502.929688 887.914062 502.457031 888.25 502.121094 888.71875 C 501.988281 888.988281 501.851562 889.191406 501.851562 889.527344 L 501.851562 891.40625 C 501.785156 897.386719 501.652344 903.4375 501.515625 909.417969 C 500.980469 933.410156 500.105469 957.46875 498.558594 981.457031 C 496.949219 957.46875 496.140625 933.410156 495.601562 909.417969 C 495.46875 903.4375 495.265625 897.386719 495.265625 891.40625 L 495.265625 889.660156 C 495.265625 889.390625 495.265625 889.054688 495.335938 888.785156 C 495.46875 887.578125 495.804688 886.367188 496.410156 885.292969 C 497.621094 883.140625 499.703125 881.597656 502.121094 880.992188 C 502.726562 880.855469 503.332031 880.789062 503.9375 880.789062 L 505.078125 880.789062 L 507.296875 880.722656 L 511.800781 880.65625 L 547.820312 880.453125 L 583.839844 880.65625 C 595.871094 880.855469 607.832031 880.921875 619.859375 881.257812 C 643.785156 881.933594 667.777344 882.738281 691.765625 884.351562 Z M 691.765625 884.351562 " fill-opacity="1" fill-rule="nonzero"/></g><path fill="#b10f16" d="M 1035.507812 892.28125 L 1028.25 892.28125 L 1028.25 979.039062 L 1035.507812 979.039062 C 1040.683594 979.039062 1044.914062 974.804688 1044.914062 969.628906 L 1044.914062 901.757812 C 1044.914062 896.515625 1040.683594 892.28125 1035.507812 892.28125 Z M 1035.507812 892.28125 " fill-opacity="1" fill-rule="nonzero"/><path fill="#b10f16" d="M 1189.402344 905.585938 C 1180.394531 898.195312 1168.636719 895.238281 1157.144531 897.457031 L 1105.0625 907.738281 C 1087.789062 911.164062 1069.78125 910.761719 1052.644531 906.664062 L 1052.644531 964.589844 C 1062.050781 962.304688 1071.730469 961.164062 1081.40625 961.164062 C 1089.335938 961.164062 1097.265625 961.902344 1105.0625 963.449219 L 1157.144531 973.730469 C 1168.636719 976.015625 1180.394531 973.058594 1189.402344 965.597656 C 1198.40625 958.207031 1203.582031 947.183594 1203.582031 935.558594 C 1203.582031 923.933594 1198.40625 912.980469 1189.402344 905.585938 Z M 1191.015625 939.660156 C 1189.601562 945.167969 1186.039062 950.074219 1181.335938 952.425781 C 1183.757812 947.789062 1185.03125 943.21875 1185.101562 938.785156 C 1185.167969 934.347656 1184.160156 930.117188 1182.210938 926.417969 C 1180.195312 922.722656 1177.304688 919.429688 1173.609375 917.078125 C 1169.914062 914.660156 1165.410156 913.113281 1160.167969 912.507812 C 1164.804688 909.957031 1170.851562 909.6875 1176.160156 911.636719 C 1181.605469 913.515625 1186.175781 917.683594 1188.996094 922.789062 C 1191.617188 927.964844 1192.359375 934.148438 1191.015625 939.660156 Z M 1191.015625 939.660156 " fill-opacity="1" fill-rule="nonzero"/><path fill="#b10f16" d="M 394.933594 907.738281 L 342.851562 897.457031 C 340.296875 896.984375 337.8125 896.714844 335.257812 896.714844 C 326.320312 896.714844 317.652344 899.808594 310.59375 905.585938 C 301.589844 912.980469 296.414062 924 296.414062 935.625 C 296.414062 947.320312 301.589844 958.273438 310.59375 965.664062 C 319.601562 973.058594 331.359375 976.015625 342.851562 973.796875 L 394.933594 963.515625 C 412.207031 960.089844 430.214844 960.492188 447.351562 964.589844 L 447.351562 906.664062 C 430.214844 910.761719 412.207031 911.164062 394.933594 907.738281 Z M 339.828125 912.441406 C 334.585938 913.046875 330.082031 914.59375 326.386719 917.011719 C 322.625 919.363281 319.800781 922.65625 317.785156 926.351562 C 315.835938 930.117188 314.828125 934.28125 314.894531 938.71875 C 314.964844 943.152344 316.171875 947.722656 318.660156 952.359375 C 313.957031 949.941406 310.328125 945.101562 308.980469 939.589844 C 307.570312 934.082031 308.308594 927.898438 311.066406 922.722656 C 313.820312 917.617188 318.457031 913.449219 323.902344 911.566406 C 329.210938 909.6875 335.191406 909.886719 339.828125 912.441406 Z M 339.828125 912.441406 " fill-opacity="1" fill-rule="nonzero"/><path fill="#b10f16" d="M 455.011719 901.6875 L 455.011719 969.5625 C 455.011719 974.738281 459.246094 978.972656 464.421875 978.972656 L 471.679688 978.972656 L 471.679688 892.28125 L 464.421875 892.28125 C 459.246094 892.28125 455.011719 896.449219 455.011719 901.6875 Z M 455.011719 901.6875 " fill-opacity="1" fill-rule="nonzero"/></svg>