<svg xmlns="http://www.w3.org/2000/svg" xmlns:xlink="http://www.w3.org/1999/xlink" width="500" zoomAndPan="magnify" viewBox="0 0 375 374.999991" height="500" preserveAspectRatio="xMidYMid meet" version="1.0"><defs><g/><clipPath id="130aacc8a2"><path d="M 94.476562 73.539062 L 350.78125 73.539062 L 350.78125 135.03125 L 94.476562 135.03125 Z M 94.476562 73.539062 " clip-rule="nonzero"/></clipPath><clipPath id="79d7e532be"><path d="M 350.582031 79.539062 L 350.582031 129.03125 C 350.582031 132.34375 347.898438 135.03125 344.582031 135.03125 L 100.476562 135.03125 C 97.164062 135.03125 94.476562 132.34375 94.476562 129.03125 L 94.476562 79.539062 C 94.476562 76.222656 97.164062 73.539062 100.476562 73.539062 L 344.582031 73.539062 C 347.898438 73.539062 350.582031 76.222656 350.582031 79.539062 Z M 350.582031 79.539062 " clip-rule="nonzero"/></clipPath><clipPath id="05cffca902"><path d="M 0.476562 0.539062 L 256.71875 0.539062 L 256.71875 62.03125 L 0.476562 62.03125 Z M 0.476562 0.539062 " clip-rule="nonzero"/></clipPath><clipPath id="760a3c5cee"><path d="M 256.582031 6.539062 L 256.582031 56.03125 C 256.582031 59.34375 253.898438 62.03125 250.582031 62.03125 L 6.476562 62.03125 C 3.164062 62.03125 0.476562 59.34375 0.476562 56.03125 L 0.476562 6.539062 C 0.476562 3.222656 3.164062 0.539062 6.476562 0.539062 L 250.582031 0.539062 C 253.898438 0.539062 256.582031 3.222656 256.582031 6.539062 Z M 256.582031 6.539062 " clip-rule="nonzero"/></clipPath><clipPath id="e2e8815aee"><rect x="0" width="257" y="0" height="63"/></clipPath><clipPath id="60e8915930"><path d="M 0.203125 35.054688 L 138.667969 35.054688 L 138.667969 173.515625 L 0.203125 173.515625 Z M 0.203125 35.054688 " clip-rule="nonzero"/></clipPath><clipPath id="fb8cf60711"><path d="M 69.433594 35.054688 C 31.199219 35.054688 0.203125 66.050781 0.203125 104.285156 C 0.203125 142.519531 31.199219 173.515625 69.433594 173.515625 C 107.671875 173.515625 138.667969 142.519531 138.667969 104.285156 C 138.667969 66.050781 107.671875 35.054688 69.433594 35.054688 Z M 69.433594 35.054688 " clip-rule="nonzero"/></clipPath><clipPath id="3c5bd7b9ea"><path d="M 0.203125 0.0546875 L 138.667969 0.0546875 L 138.667969 138.515625 L 0.203125 138.515625 Z M 0.203125 0.0546875 " clip-rule="nonzero"/></clipPath><clipPath id="257f2035ef"><path d="M 69.433594 0.0546875 C 31.199219 0.0546875 0.203125 31.050781 0.203125 69.285156 C 0.203125 107.519531 31.199219 138.515625 69.433594 138.515625 C 107.671875 138.515625 138.667969 107.519531 138.667969 69.285156 C 138.667969 31.050781 107.671875 0.0546875 69.433594 0.0546875 Z M 69.433594 0.0546875 " clip-rule="nonzero"/></clipPath><clipPath id="5cb25e9a1f"><rect x="0" width="139" y="0" height="139"/></clipPath><clipPath id="dc86c3489a"><path d="M 327 23 L 346.902344 23 L 346.902344 100.351562 L 327 100.351562 Z M 327 23 " clip-rule="nonzero"/></clipPath><clipPath id="d61d16a692"><path d="M 305 44 L 324 44 L 324 100.351562 L 305 100.351562 Z M 305 44 " clip-rule="nonzero"/></clipPath><clipPath id="ce89fb3867"><path d="M 290 6.523438 L 311 6.523438 L 311 100.351562 L 290 100.351562 Z M 290 6.523438 " clip-rule="nonzero"/></clipPath><clipPath id="1dfb63831f"><path d="M 266.34375 27 L 287 27 L 287 100.351562 L 266.34375 100.351562 Z M 266.34375 27 " clip-rule="nonzero"/></clipPath><clipPath id="15f6799b10"><path d="M 20.023438 79.578125 L 69.433594 79.578125 L 69.433594 128.992188 L 20.023438 128.992188 Z M 20.023438 79.578125 " clip-rule="nonzero"/></clipPath><clipPath id="7a0ed97978"><path d="M 44.730469 79.578125 C 31.085938 79.578125 20.023438 90.640625 20.023438 104.285156 C 20.023438 117.929688 31.085938 128.992188 44.730469 128.992188 C 58.375 128.992188 69.433594 117.929688 69.433594 104.285156 C 69.433594 90.640625 58.375 79.578125 44.730469 79.578125 Z M 44.730469 79.578125 " clip-rule="nonzero"/></clipPath><clipPath id="dde0c35ce2"><path d="M 0.0234375 0.578125 L 49.433594 0.578125 L 49.433594 49.992188 L 0.0234375 49.992188 Z M 0.0234375 0.578125 " clip-rule="nonzero"/></clipPath><clipPath id="47c302e484"><path d="M 24.730469 0.578125 C 11.085938 0.578125 0.0234375 11.640625 0.0234375 25.285156 C 0.0234375 38.929688 11.085938 49.992188 24.730469 49.992188 C 38.375 49.992188 49.433594 38.929688 49.433594 25.285156 C 49.433594 11.640625 38.375 0.578125 24.730469 0.578125 Z M 24.730469 0.578125 " clip-rule="nonzero"/></clipPath><clipPath id="963a4c1aed"><rect x="0" width="50" y="0" height="50"/></clipPath><clipPath id="a5c3bfaf16"><rect x="0" width="351" y="0" height="177"/></clipPath></defs><g transform="matrix(1, 0, 0, 1, 10, 98)"><g clip-path="url(#a5c3bfaf16)"><g clip-path="url(#130aacc8a2)"><g clip-path="url(#79d7e532be)"><g transform="matrix(1, 0, 0, 1, 94, 73)"><g clip-path="url(#e2e8815aee)"><g clip-path="url(#05cffca902)"><g clip-path="url(#760a3c5cee)"><path fill="#cc0066" d="M 0.476562 0.539062 L 256.539062 0.539062 L 256.539062 62.03125 L 0.476562 62.03125 Z M 0.476562 0.539062 " fill-opacity="1" fill-rule="nonzero"/></g></g></g></g></g></g><g clip-path="url(#60e8915930)"><g clip-path="url(#fb8cf60711)"><g transform="matrix(1, 0, 0, 1, 0, 35)"><g clip-path="url(#5cb25e9a1f)"><g clip-path="url(#3c5bd7b9ea)"><g clip-path="url(#257f2035ef)"><path fill="#cc0066" d="M 0.203125 0.0546875 L 138.667969 0.0546875 L 138.667969 138.515625 L 0.203125 138.515625 Z M 0.203125 0.0546875 " fill-opacity="1" fill-rule="nonzero"/></g></g></g></g></g></g><g clip-path="url(#dc86c3489a)"><path fill="#cc0066" d="M 329.320312 32.148438 C 329.320312 36.570312 332.609375 40.203125 336.878906 40.789062 L 336.878906 55.714844 L 327.648438 62.097656 C 327.304688 62.34375 327.160156 62.6875 327.160156 63.082031 L 327.160156 99.265625 C 327.160156 99.902344 327.699219 100.441406 328.335938 100.441406 C 328.976562 100.441406 329.515625 99.902344 329.515625 99.265625 L 329.515625 63.667969 L 338.746094 57.285156 C 339.089844 57.042969 339.234375 56.699219 339.234375 56.304688 L 339.234375 40.742188 C 343.507812 40.152344 346.796875 36.519531 346.796875 32.101562 C 346.796875 27.289062 342.867188 23.363281 338.058594 23.363281 C 333.246094 23.363281 329.320312 27.339844 329.320312 32.148438 Z M 344.390625 32.148438 C 344.390625 35.636719 341.542969 38.484375 338.058594 38.484375 C 334.570312 38.484375 331.722656 35.636719 331.722656 32.148438 C 331.722656 28.664062 334.570312 25.816406 338.058594 25.816406 C 341.542969 25.816406 344.390625 28.613281 344.390625 32.148438 Z M 344.390625 32.148438 " fill-opacity="1" fill-rule="nonzero"/></g><g clip-path="url(#d61d16a692)"><path fill="#cc0066" d="M 315.867188 99.265625 L 315.867188 61.605469 C 320.136719 61.019531 323.425781 57.386719 323.425781 52.964844 C 323.425781 48.15625 319.5 44.226562 314.6875 44.226562 C 309.875 44.226562 305.949219 48.15625 305.949219 52.964844 C 305.949219 57.386719 309.238281 61.019531 313.511719 61.605469 L 313.511719 99.265625 C 313.511719 99.902344 314.050781 100.441406 314.6875 100.441406 C 315.328125 100.441406 315.867188 99.902344 315.867188 99.265625 Z M 308.304688 52.964844 C 308.304688 49.480469 311.152344 46.632812 314.640625 46.632812 C 318.125 46.632812 321.023438 49.480469 321.023438 52.964844 C 321.023438 56.453125 318.175781 59.300781 314.6875 59.300781 C 311.152344 59.300781 308.304688 56.453125 308.304688 52.964844 Z M 308.304688 52.964844 " fill-opacity="1" fill-rule="nonzero"/></g><g clip-path="url(#ce89fb3867)"><path fill="#cc0066" d="M 300.746094 99.265625 L 300.746094 66.417969 C 300.746094 66.027344 300.546875 65.632812 300.203125 65.386719 L 292.839844 60.773438 L 292.839844 40.546875 L 302.167969 35.539062 C 302.5625 35.339844 302.808594 34.949219 302.808594 34.507812 L 302.808594 23.902344 C 307.078125 23.3125 310.367188 19.679688 310.367188 15.261719 C 310.367188 10.449219 306.441406 6.523438 301.628906 6.523438 C 296.816406 6.523438 292.890625 10.449219 292.890625 15.261719 C 292.890625 19.679688 296.179688 23.3125 300.449219 23.902344 L 300.449219 33.769531 L 291.121094 38.777344 C 290.730469 38.972656 290.484375 39.367188 290.484375 39.808594 L 290.484375 61.410156 C 290.484375 61.804688 290.679688 62.195312 291.023438 62.441406 L 298.386719 67.058594 L 298.386719 99.214844 C 298.386719 99.851562 298.929688 100.394531 299.566406 100.394531 C 300.203125 100.441406 300.746094 99.902344 300.746094 99.265625 Z M 295.195312 15.261719 C 295.195312 11.773438 298.042969 8.925781 301.53125 8.925781 C 305.015625 8.925781 307.863281 11.773438 307.863281 15.261719 C 307.863281 18.746094 305.015625 21.59375 301.53125 21.59375 C 298.042969 21.644531 295.195312 18.796875 295.195312 15.261719 Z M 295.195312 15.261719 " fill-opacity="1" fill-rule="nonzero"/></g><g clip-path="url(#1dfb63831f)"><path fill="#cc0066" d="M 286.851562 99.265625 L 286.851562 80.3125 C 286.851562 79.871094 286.605469 79.476562 286.261719 79.28125 L 276.738281 73.683594 L 276.738281 45.109375 C 281.007812 44.523438 284.296875 40.890625 284.296875 36.46875 C 284.296875 31.660156 280.371094 27.730469 275.558594 27.730469 C 270.746094 27.730469 266.820312 31.660156 266.820312 36.46875 C 266.820312 40.890625 270.109375 44.523438 274.378906 45.109375 L 274.378906 74.371094 C 274.378906 74.8125 274.625 75.207031 274.96875 75.402344 L 284.496094 81 L 284.496094 99.265625 C 284.496094 99.902344 285.035156 100.441406 285.671875 100.441406 C 286.3125 100.441406 286.851562 99.902344 286.851562 99.265625 Z M 269.175781 36.46875 C 269.175781 32.984375 272.023438 30.136719 275.507812 30.136719 C 278.996094 30.136719 281.84375 32.984375 281.84375 36.46875 C 281.84375 39.957031 278.996094 42.804688 275.507812 42.804688 C 272.023438 42.851562 269.175781 40.003906 269.175781 36.46875 Z M 269.175781 36.46875 " fill-opacity="1" fill-rule="nonzero"/></g><g fill="#000000" fill-opacity="1"><g transform="translate(94.950635, 34.445305)"><g><path d="M 11.84375 -13.171875 L 21.15625 -13.171875 L 21.15625 -1.015625 C 19.644531 -0.515625 18.222656 -0.164062 16.890625 0.03125 C 15.554688 0.226562 14.195312 0.328125 12.8125 0.328125 C 9.269531 0.328125 6.566406 -0.710938 4.703125 -2.796875 C 2.835938 -4.878906 1.90625 -7.863281 1.90625 -11.75 C 1.90625 -15.539062 2.988281 -18.492188 5.15625 -20.609375 C 7.320312 -22.722656 10.320312 -23.78125 14.15625 -23.78125 C 16.5625 -23.78125 18.882812 -23.300781 21.125 -22.34375 L 19.46875 -18.359375 C 17.757812 -19.210938 15.976562 -19.640625 14.125 -19.640625 C 11.976562 -19.640625 10.257812 -18.914062 8.96875 -17.46875 C 7.675781 -16.03125 7.03125 -14.09375 7.03125 -11.65625 C 7.03125 -9.113281 7.550781 -7.171875 8.59375 -5.828125 C 9.632812 -4.484375 11.148438 -3.8125 13.140625 -3.8125 C 14.171875 -3.8125 15.222656 -3.921875 16.296875 -4.140625 L 16.296875 -9.03125 L 11.84375 -9.03125 Z M 11.84375 -13.171875 "/></g></g></g><g fill="#000000" fill-opacity="1"><g transform="translate(118.735743, 34.445305)"><g><path d="M 7.921875 -13.03125 L 9.53125 -13.03125 C 11.101562 -13.03125 12.257812 -13.289062 13 -13.8125 C 13.75 -14.34375 14.125 -15.171875 14.125 -16.296875 C 14.125 -17.410156 13.738281 -18.203125 12.96875 -18.671875 C 12.207031 -19.140625 11.03125 -19.375 9.4375 -19.375 L 7.921875 -19.375 Z M 7.921875 -9 L 7.921875 0 L 2.953125 0 L 2.953125 -23.453125 L 9.78125 -23.453125 C 12.96875 -23.453125 15.320312 -22.867188 16.84375 -21.703125 C 18.375 -20.546875 19.140625 -18.785156 19.140625 -16.421875 C 19.140625 -15.046875 18.757812 -13.816406 18 -12.734375 C 17.25 -11.660156 16.175781 -10.820312 14.78125 -10.21875 C 18.3125 -4.945312 20.613281 -1.539062 21.6875 0 L 16.171875 0 L 10.5625 -9 Z M 7.921875 -9 "/></g></g></g><g fill="#000000" fill-opacity="1"><g transform="translate(140.419806, 34.445305)"><g><path d="M 22.03125 -23.453125 L 22.03125 -8.28125 C 22.03125 -6.539062 21.640625 -5.019531 20.859375 -3.71875 C 20.085938 -2.414062 18.96875 -1.414062 17.5 -0.71875 C 16.039062 -0.0195312 14.3125 0.328125 12.3125 0.328125 C 9.300781 0.328125 6.960938 -0.441406 5.296875 -1.984375 C 3.628906 -3.535156 2.796875 -5.65625 2.796875 -8.34375 L 2.796875 -23.453125 L 7.75 -23.453125 L 7.75 -9.09375 C 7.75 -7.28125 8.109375 -5.953125 8.828125 -5.109375 C 9.554688 -4.265625 10.757812 -3.84375 12.4375 -3.84375 C 14.0625 -3.84375 15.238281 -4.269531 15.96875 -5.125 C 16.707031 -5.976562 17.078125 -7.3125 17.078125 -9.125 L 17.078125 -23.453125 Z M 22.03125 -23.453125 "/></g></g></g><g fill="#000000" fill-opacity="1"><g transform="translate(165.247416, 34.445305)"><g><path d="M 23.75 0 L 17.4375 0 L 7.234375 -17.734375 L 7.09375 -17.734375 C 7.289062 -14.597656 7.390625 -12.363281 7.390625 -11.03125 L 7.390625 0 L 2.953125 0 L 2.953125 -23.453125 L 9.21875 -23.453125 L 19.40625 -5.890625 L 19.515625 -5.890625 C 19.359375 -8.929688 19.28125 -11.082031 19.28125 -12.34375 L 19.28125 -23.453125 L 23.75 -23.453125 Z M 23.75 0 "/></g></g></g><g fill="#000000" fill-opacity="1"><g transform="translate(191.951533, 34.445305)"><g><path d="M 22.40625 -11.953125 C 22.40625 -8.085938 21.304688 -5.128906 19.109375 -3.078125 C 16.910156 -1.023438 13.738281 0 9.59375 0 L 2.953125 0 L 2.953125 -23.453125 L 10.3125 -23.453125 C 14.132812 -23.453125 17.101562 -22.441406 19.21875 -20.421875 C 21.34375 -18.398438 22.40625 -15.578125 22.40625 -11.953125 Z M 17.234375 -11.8125 C 17.234375 -16.851562 15.007812 -19.375 10.5625 -19.375 L 7.921875 -19.375 L 7.921875 -4.109375 L 10.0625 -4.109375 C 14.84375 -4.109375 17.234375 -6.675781 17.234375 -11.8125 Z M 17.234375 -11.8125 "/></g></g></g><g fill="#000000" fill-opacity="1"><g transform="translate(131.03838, 165.804141)"><g><path d="M 12.875 0 L 7.234375 -18.390625 L 7.09375 -18.390625 C 7.289062 -14.648438 7.390625 -12.15625 7.390625 -10.90625 L 7.390625 0 L 2.953125 0 L 2.953125 -23.453125 L 9.71875 -23.453125 L 15.265625 -5.515625 L 15.359375 -5.515625 L 21.25 -23.453125 L 28.015625 -23.453125 L 28.015625 0 L 23.375 0 L 23.375 -11.09375 C 23.375 -11.625 23.382812 -12.226562 23.40625 -12.90625 C 23.425781 -13.59375 23.5 -15.410156 23.625 -18.359375 L 23.484375 -18.359375 L 17.4375 0 Z M 12.875 0 "/></g></g></g><g fill="#000000" fill-opacity="1"><g transform="translate(162.008739, 165.804141)"><g><path d="M 2.953125 0 L 2.953125 -23.453125 L 7.921875 -23.453125 L 7.921875 0 Z M 2.953125 0 "/></g></g></g><g fill="#000000" fill-opacity="1"><g transform="translate(172.882848, 165.804141)"><g><path d="M 12 0 L 7.03125 0 L 7.03125 -19.3125 L 0.65625 -19.3125 L 0.65625 -23.453125 L 18.359375 -23.453125 L 18.359375 -19.3125 L 12 -19.3125 Z M 12 0 "/></g></g></g><g fill="#000000" fill-opacity="1"><g transform="translate(191.904519, 165.804141)"><g><path d="M 12 0 L 7.03125 0 L 7.03125 -19.3125 L 0.65625 -19.3125 L 0.65625 -23.453125 L 18.359375 -23.453125 L 18.359375 -19.3125 L 12 -19.3125 Z M 12 0 "/></g></g></g><g fill="#000000" fill-opacity="1"><g transform="translate(210.926191, 165.804141)"><g><path d="M 16.453125 0 L 2.953125 0 L 2.953125 -23.453125 L 16.453125 -23.453125 L 16.453125 -19.375 L 7.921875 -19.375 L 7.921875 -14.21875 L 15.859375 -14.21875 L 15.859375 -10.15625 L 7.921875 -10.15625 L 7.921875 -4.109375 L 16.453125 -4.109375 Z M 16.453125 0 "/></g></g></g><g fill="#000000" fill-opacity="1"><g transform="translate(229.32236, 165.804141)"><g><path d="M 2.953125 0 L 2.953125 -23.453125 L 7.921875 -23.453125 L 7.921875 -4.109375 L 17.4375 -4.109375 L 17.4375 0 Z M 2.953125 0 "/></g></g></g><g fill="#000000" fill-opacity="1"><g transform="translate(247.878914, 165.804141)"><g><path d="M 17.296875 0 L 15.609375 -5.578125 L 7.0625 -5.578125 L 5.359375 0 L 0 0 L 8.28125 -23.546875 L 14.359375 -23.546875 L 22.65625 0 Z M 14.421875 -9.75 C 12.847656 -14.8125 11.960938 -17.671875 11.765625 -18.328125 C 11.566406 -18.992188 11.425781 -19.519531 11.34375 -19.90625 C 10.988281 -18.53125 9.976562 -15.144531 8.3125 -9.75 Z M 14.421875 -9.75 "/></g></g></g><g fill="#000000" fill-opacity="1"><g transform="translate(270.541327, 165.804141)"><g><path d="M 2.953125 0 L 2.953125 -23.453125 L 7.921875 -23.453125 L 7.921875 -4.109375 L 17.4375 -4.109375 L 17.4375 0 Z M 2.953125 0 "/></g></g></g><g fill="#000000" fill-opacity="1"><g transform="translate(289.097881, 165.804141)"><g><path d="M 12 0 L 7.03125 0 L 7.03125 -19.3125 L 0.65625 -19.3125 L 0.65625 -23.453125 L 18.359375 -23.453125 L 18.359375 -19.3125 L 12 -19.3125 Z M 12 0 "/></g></g></g><g fill="#000000" fill-opacity="1"><g transform="translate(308.119553, 165.804141)"><g><path d="M 16.453125 0 L 2.953125 0 L 2.953125 -23.453125 L 16.453125 -23.453125 L 16.453125 -19.375 L 7.921875 -19.375 L 7.921875 -14.21875 L 15.859375 -14.21875 L 15.859375 -10.15625 L 7.921875 -10.15625 L 7.921875 -4.109375 L 16.453125 -4.109375 Z M 16.453125 0 "/></g></g></g><g fill="#000000" fill-opacity="1"><g transform="translate(326.515722, 165.804141)"><g><path d="M 7.921875 -13.03125 L 9.53125 -13.03125 C 11.101562 -13.03125 12.257812 -13.289062 13 -13.8125 C 13.75 -14.34375 14.125 -15.171875 14.125 -16.296875 C 14.125 -17.410156 13.738281 -18.203125 12.96875 -18.671875 C 12.207031 -19.140625 11.03125 -19.375 9.4375 -19.375 L 7.921875 -19.375 Z M 7.921875 -9 L 7.921875 0 L 2.953125 0 L 2.953125 -23.453125 L 9.78125 -23.453125 C 12.96875 -23.453125 15.320312 -22.867188 16.84375 -21.703125 C 18.375 -20.546875 19.140625 -18.785156 19.140625 -16.421875 C 19.140625 -15.046875 18.757812 -13.816406 18 -12.734375 C 17.25 -11.660156 16.175781 -10.820312 14.78125 -10.21875 C 18.3125 -4.945312 20.613281 -1.539062 21.6875 0 L 16.171875 0 L 10.5625 -9 Z M 7.921875 -9 "/></g></g></g><g clip-path="url(#15f6799b10)"><g clip-path="url(#7a0ed97978)"><g transform="matrix(1, 0, 0, 1, 20, 79)"><g clip-path="url(#963a4c1aed)"><g clip-path="url(#dde0c35ce2)"><g clip-path="url(#47c302e484)"><path fill="#ffffff" d="M 0.0234375 0.578125 L 49.433594 0.578125 L 49.433594 49.992188 L 0.0234375 49.992188 Z M 0.0234375 0.578125 " fill-opacity="1" fill-rule="nonzero"/></g></g></g></g></g></g><g fill="#000000" fill-opacity="1"><g transform="translate(132.961113, 64.857518)"><g><path d="M 25.78125 0 L 20.125 0 L 16.953125 -12.3125 C 16.835938 -12.75 16.632812 -13.65625 16.34375 -15.03125 C 16.0625 -16.40625 15.898438 -17.328125 15.859375 -17.796875 C 15.796875 -17.222656 15.632812 -16.296875 15.375 -15.015625 C 15.125 -13.742188 14.925781 -12.832031 14.78125 -12.28125 L 11.625 0 L 5.984375 0 L 0 -23.453125 L 4.890625 -23.453125 L 7.890625 -10.65625 C 8.410156 -8.289062 8.789062 -6.238281 9.03125 -4.5 C 9.09375 -5.113281 9.238281 -6.054688 9.46875 -7.328125 C 9.695312 -8.609375 9.914062 -9.601562 10.125 -10.3125 L 13.53125 -23.453125 L 18.234375 -23.453125 L 21.65625 -10.3125 C 21.800781 -9.726562 21.984375 -8.832031 22.203125 -7.625 C 22.429688 -6.414062 22.601562 -5.375 22.71875 -4.5 C 22.832031 -5.332031 23.003906 -6.375 23.234375 -7.625 C 23.472656 -8.875 23.6875 -9.882812 23.875 -10.65625 L 26.859375 -23.453125 L 31.75 -23.453125 Z M 25.78125 0 "/></g></g></g><g fill="#000000" fill-opacity="1"><g transform="translate(164.717359, 64.857518)"><g><path d="M 2.953125 0 L 2.953125 -23.453125 L 7.921875 -23.453125 L 7.921875 0 Z M 2.953125 0 "/></g></g></g><g fill="#000000" fill-opacity="1"><g transform="translate(175.591468, 64.857518)"><g><path d="M 16.796875 -6.515625 C 16.796875 -4.390625 16.03125 -2.71875 14.5 -1.5 C 12.976562 -0.28125 10.859375 0.328125 8.140625 0.328125 C 5.640625 0.328125 3.425781 -0.144531 1.5 -1.09375 L 1.5 -5.703125 C 3.082031 -5.003906 4.421875 -4.507812 5.515625 -4.21875 C 6.617188 -3.925781 7.625 -3.78125 8.53125 -3.78125 C 9.625 -3.78125 10.460938 -3.988281 11.046875 -4.40625 C 11.628906 -4.820312 11.921875 -5.441406 11.921875 -6.265625 C 11.921875 -6.722656 11.789062 -7.128906 11.53125 -7.484375 C 11.269531 -7.847656 10.890625 -8.195312 10.390625 -8.53125 C 9.898438 -8.863281 8.890625 -9.394531 7.359375 -10.125 C 5.929688 -10.789062 4.859375 -11.429688 4.140625 -12.046875 C 3.421875 -12.671875 2.847656 -13.394531 2.421875 -14.21875 C 1.992188 -15.039062 1.78125 -16.003906 1.78125 -17.109375 C 1.78125 -19.179688 2.484375 -20.8125 3.890625 -22 C 5.296875 -23.1875 7.238281 -23.78125 9.71875 -23.78125 C 10.9375 -23.78125 12.097656 -23.632812 13.203125 -23.34375 C 14.304688 -23.0625 15.460938 -22.65625 16.671875 -22.125 L 15.078125 -18.265625 C 13.828125 -18.773438 12.789062 -19.128906 11.96875 -19.328125 C 11.15625 -19.535156 10.351562 -19.640625 9.5625 -19.640625 C 8.613281 -19.640625 7.890625 -19.421875 7.390625 -18.984375 C 6.890625 -18.546875 6.640625 -17.972656 6.640625 -17.265625 C 6.640625 -16.828125 6.738281 -16.445312 6.9375 -16.125 C 7.144531 -15.800781 7.46875 -15.484375 7.90625 -15.171875 C 8.351562 -14.867188 9.40625 -14.320312 11.0625 -13.53125 C 13.257812 -12.488281 14.765625 -11.4375 15.578125 -10.375 C 16.390625 -9.320312 16.796875 -8.035156 16.796875 -6.515625 Z M 16.796875 -6.515625 "/></g></g></g><g fill="#000000" fill-opacity="1"><g transform="translate(193.682906, 64.857518)"><g><path d="M 16.796875 -6.515625 C 16.796875 -4.390625 16.03125 -2.71875 14.5 -1.5 C 12.976562 -0.28125 10.859375 0.328125 8.140625 0.328125 C 5.640625 0.328125 3.425781 -0.144531 1.5 -1.09375 L 1.5 -5.703125 C 3.082031 -5.003906 4.421875 -4.507812 5.515625 -4.21875 C 6.617188 -3.925781 7.625 -3.78125 8.53125 -3.78125 C 9.625 -3.78125 10.460938 -3.988281 11.046875 -4.40625 C 11.628906 -4.820312 11.921875 -5.441406 11.921875 -6.265625 C 11.921875 -6.722656 11.789062 -7.128906 11.53125 -7.484375 C 11.269531 -7.847656 10.890625 -8.195312 10.390625 -8.53125 C 9.898438 -8.863281 8.890625 -9.394531 7.359375 -10.125 C 5.929688 -10.789062 4.859375 -11.429688 4.140625 -12.046875 C 3.421875 -12.671875 2.847656 -13.394531 2.421875 -14.21875 C 1.992188 -15.039062 1.78125 -16.003906 1.78125 -17.109375 C 1.78125 -19.179688 2.484375 -20.8125 3.890625 -22 C 5.296875 -23.1875 7.238281 -23.78125 9.71875 -23.78125 C 10.9375 -23.78125 12.097656 -23.632812 13.203125 -23.34375 C 14.304688 -23.0625 15.460938 -22.65625 16.671875 -22.125 L 15.078125 -18.265625 C 13.828125 -18.773438 12.789062 -19.128906 11.96875 -19.328125 C 11.15625 -19.535156 10.351562 -19.640625 9.5625 -19.640625 C 8.613281 -19.640625 7.890625 -19.421875 7.390625 -18.984375 C 6.890625 -18.546875 6.640625 -17.972656 6.640625 -17.265625 C 6.640625 -16.828125 6.738281 -16.445312 6.9375 -16.125 C 7.144531 -15.800781 7.46875 -15.484375 7.90625 -15.171875 C 8.351562 -14.867188 9.40625 -14.320312 11.0625 -13.53125 C 13.257812 -12.488281 14.765625 -11.4375 15.578125 -10.375 C 16.390625 -9.320312 16.796875 -8.035156 16.796875 -6.515625 Z M 16.796875 -6.515625 "/></g></g></g><g fill="#000000" fill-opacity="1"><g transform="translate(211.774343, 64.857518)"><g><path d="M 16.453125 0 L 2.953125 0 L 2.953125 -23.453125 L 16.453125 -23.453125 L 16.453125 -19.375 L 7.921875 -19.375 L 7.921875 -14.21875 L 15.859375 -14.21875 L 15.859375 -10.15625 L 7.921875 -10.15625 L 7.921875 -4.109375 L 16.453125 -4.109375 Z M 16.453125 0 "/></g></g></g><g fill="#000000" fill-opacity="1"><g transform="translate(230.170513, 64.857518)"><g><path d="M 23.75 0 L 17.4375 0 L 7.234375 -17.734375 L 7.09375 -17.734375 C 7.289062 -14.597656 7.390625 -12.363281 7.390625 -11.03125 L 7.390625 0 L 2.953125 0 L 2.953125 -23.453125 L 9.21875 -23.453125 L 19.40625 -5.890625 L 19.515625 -5.890625 C 19.359375 -8.929688 19.28125 -11.082031 19.28125 -12.34375 L 19.28125 -23.453125 L 23.75 -23.453125 Z M 23.75 0 "/></g></g></g><g fill="#ffffff" fill-opacity="1"><g transform="translate(160.537307, 100.810457)"><g><path d="M 15.265625 -16.234375 L 15.265625 -5.734375 C 15.265625 -4.535156 14.992188 -3.484375 14.453125 -2.578125 C 13.921875 -1.671875 13.144531 -0.976562 12.125 -0.5 C 11.113281 -0.0195312 9.914062 0.21875 8.53125 0.21875 C 6.445312 0.21875 4.828125 -0.3125 3.671875 -1.375 C 2.515625 -2.445312 1.9375 -3.914062 1.9375 -5.78125 L 1.9375 -16.234375 L 5.359375 -16.234375 L 5.359375 -6.296875 C 5.359375 -5.046875 5.609375 -4.128906 6.109375 -3.546875 C 6.617188 -2.960938 7.457031 -2.671875 8.625 -2.671875 C 9.75 -2.671875 10.5625 -2.960938 11.0625 -3.546875 C 11.570312 -4.140625 11.828125 -5.066406 11.828125 -6.328125 L 11.828125 -16.234375 Z M 15.265625 -16.234375 "/></g></g></g><g fill="#ffffff" fill-opacity="1"><g transform="translate(182.371327, 100.810457)"><g><path d="M 16.453125 0 L 12.078125 0 L 5.015625 -12.28125 L 4.90625 -12.28125 C 5.050781 -10.113281 5.125 -8.566406 5.125 -7.640625 L 5.125 0 L 2.046875 0 L 2.046875 -16.234375 L 6.390625 -16.234375 L 13.4375 -4.078125 L 13.515625 -4.078125 C 13.410156 -6.191406 13.359375 -7.679688 13.359375 -8.546875 L 13.359375 -16.234375 L 16.453125 -16.234375 Z M 16.453125 0 "/></g></g></g><g fill="#ffffff" fill-opacity="1"><g transform="translate(205.504858, 100.810457)"><g><path d="M 2.046875 0 L 2.046875 -16.234375 L 5.484375 -16.234375 L 5.484375 0 Z M 2.046875 0 "/></g></g></g><g fill="#000000" fill-opacity="1"><g transform="translate(217.686113, 100.810457)"><g><path d="M 13.96875 0 L 11.734375 0 L 5.828125 -7.875 L 4.125 -6.359375 L 4.125 0 L 2.234375 0 L 2.234375 -16.234375 L 4.125 -16.234375 L 4.125 -8.1875 L 11.484375 -16.234375 L 13.71875 -16.234375 L 7.1875 -9.1875 Z M 13.96875 0 "/></g></g></g><g fill="#000000" fill-opacity="1"><g transform="translate(236.28802, 100.810457)"><g><path d="M 12.4375 0 L 10.421875 -5.171875 L 3.90625 -5.171875 L 1.90625 0 L 0 0 L 6.421875 -16.3125 L 8.015625 -16.3125 L 14.390625 0 Z M 9.828125 -6.859375 L 7.9375 -11.890625 C 7.695312 -12.535156 7.445312 -13.316406 7.1875 -14.234375 C 7.019531 -13.523438 6.785156 -12.742188 6.484375 -11.890625 L 4.578125 -6.859375 Z M 9.828125 -6.859375 "/></g></g></g><g fill="#000000" fill-opacity="1"><g transform="translate(255.323097, 100.810457)"><g><path d="M 11.390625 -4.328125 C 11.390625 -2.890625 10.867188 -1.769531 9.828125 -0.96875 C 8.796875 -0.175781 7.394531 0.21875 5.625 0.21875 C 3.695312 0.21875 2.210938 -0.0234375 1.171875 -0.515625 L 1.171875 -2.34375 C 1.835938 -2.0625 2.5625 -1.835938 3.34375 -1.671875 C 4.132812 -1.515625 4.914062 -1.4375 5.6875 -1.4375 C 6.945312 -1.4375 7.894531 -1.671875 8.53125 -2.140625 C 9.164062 -2.617188 9.484375 -3.285156 9.484375 -4.140625 C 9.484375 -4.703125 9.367188 -5.160156 9.140625 -5.515625 C 8.921875 -5.878906 8.546875 -6.210938 8.015625 -6.515625 C 7.484375 -6.816406 6.675781 -7.160156 5.59375 -7.546875 C 4.082031 -8.085938 3.003906 -8.726562 2.359375 -9.46875 C 1.710938 -10.21875 1.390625 -11.1875 1.390625 -12.375 C 1.390625 -13.625 1.859375 -14.617188 2.796875 -15.359375 C 3.734375 -16.097656 4.976562 -16.46875 6.53125 -16.46875 C 8.144531 -16.46875 9.628906 -16.171875 10.984375 -15.578125 L 10.390625 -13.9375 C 9.054688 -14.5 7.753906 -14.78125 6.484375 -14.78125 C 5.484375 -14.78125 4.703125 -14.566406 4.140625 -14.140625 C 3.578125 -13.710938 3.296875 -13.117188 3.296875 -12.359375 C 3.296875 -11.796875 3.398438 -11.332031 3.609375 -10.96875 C 3.816406 -10.613281 4.164062 -10.285156 4.65625 -9.984375 C 5.15625 -9.679688 5.910156 -9.347656 6.921875 -8.984375 C 8.617188 -8.378906 9.785156 -7.726562 10.421875 -7.03125 C 11.066406 -6.332031 11.390625 -5.429688 11.390625 -4.328125 Z M 11.390625 -4.328125 "/></g></g></g><g fill="#000000" fill-opacity="1"><g transform="translate(272.447783, 100.810457)"><g><path d="M 11.390625 -4.328125 C 11.390625 -2.890625 10.867188 -1.769531 9.828125 -0.96875 C 8.796875 -0.175781 7.394531 0.21875 5.625 0.21875 C 3.695312 0.21875 2.210938 -0.0234375 1.171875 -0.515625 L 1.171875 -2.34375 C 1.835938 -2.0625 2.5625 -1.835938 3.34375 -1.671875 C 4.132812 -1.515625 4.914062 -1.4375 5.6875 -1.4375 C 6.945312 -1.4375 7.894531 -1.671875 8.53125 -2.140625 C 9.164062 -2.617188 9.484375 -3.285156 9.484375 -4.140625 C 9.484375 -4.703125 9.367188 -5.160156 9.140625 -5.515625 C 8.921875 -5.878906 8.546875 -6.210938 8.015625 -6.515625 C 7.484375 -6.816406 6.675781 -7.160156 5.59375 -7.546875 C 4.082031 -8.085938 3.003906 -8.726562 2.359375 -9.46875 C 1.710938 -10.21875 1.390625 -11.1875 1.390625 -12.375 C 1.390625 -13.625 1.859375 -14.617188 2.796875 -15.359375 C 3.734375 -16.097656 4.976562 -16.46875 6.53125 -16.46875 C 8.144531 -16.46875 9.628906 -16.171875 10.984375 -15.578125 L 10.390625 -13.9375 C 9.054688 -14.5 7.753906 -14.78125 6.484375 -14.78125 C 5.484375 -14.78125 4.703125 -14.566406 4.140625 -14.140625 C 3.578125 -13.710938 3.296875 -13.117188 3.296875 -12.359375 C 3.296875 -11.796875 3.398438 -11.332031 3.609375 -10.96875 C 3.816406 -10.613281 4.164062 -10.285156 4.65625 -9.984375 C 5.15625 -9.679688 5.910156 -9.347656 6.921875 -8.984375 C 8.617188 -8.378906 9.785156 -7.726562 10.421875 -7.03125 C 11.066406 -6.332031 11.390625 -5.429688 11.390625 -4.328125 Z M 11.390625 -4.328125 "/></g></g></g><g fill="#000000" fill-opacity="1"><g transform="translate(289.57247, 100.810457)"><g><path d="M 11.28125 0 L 2.234375 0 L 2.234375 -16.234375 L 11.28125 -16.234375 L 11.28125 -14.5625 L 4.125 -14.5625 L 4.125 -9.328125 L 10.859375 -9.328125 L 10.859375 -7.671875 L 4.125 -7.671875 L 4.125 -1.6875 L 11.28125 -1.6875 Z M 11.28125 0 "/></g></g></g><g fill="#000000" fill-opacity="1"><g transform="translate(306.863761, 100.810457)"><g><path d="M 2.234375 0 L 2.234375 -16.234375 L 4.125 -16.234375 L 4.125 -1.703125 L 11.28125 -1.703125 L 11.28125 0 Z M 2.234375 0 "/></g></g></g><g fill="#ffffff" fill-opacity="1"><g transform="translate(159.428556, 125.797995)"><g><path d="M 11.3125 -16.234375 L 14.78125 -16.234375 L 9.265625 0 L 5.515625 0 L 0 -16.234375 L 3.484375 -16.234375 L 6.53125 -6.578125 C 6.695312 -6.003906 6.867188 -5.335938 7.046875 -4.578125 C 7.234375 -3.816406 7.347656 -3.289062 7.390625 -3 C 7.472656 -3.675781 7.753906 -4.867188 8.234375 -6.578125 Z M 11.3125 -16.234375 "/></g></g></g><g fill="#ffffff" fill-opacity="1"><g transform="translate(182.173532, 125.797995)"><g><path d="M 11.390625 0 L 2.046875 0 L 2.046875 -16.234375 L 11.390625 -16.234375 L 11.390625 -13.421875 L 5.484375 -13.421875 L 5.484375 -9.859375 L 10.984375 -9.859375 L 10.984375 -7.03125 L 5.484375 -7.03125 L 5.484375 -2.84375 L 11.390625 -2.84375 Z M 11.390625 0 "/></g></g></g><g fill="#ffffff" fill-opacity="1"><g transform="translate(202.874835, 125.797995)"><g><path d="M 5.484375 -9.03125 L 6.59375 -9.03125 C 7.6875 -9.03125 8.488281 -9.210938 9 -9.578125 C 9.519531 -9.941406 9.78125 -10.507812 9.78125 -11.28125 C 9.78125 -12.050781 9.515625 -12.597656 8.984375 -12.921875 C 8.460938 -13.253906 7.644531 -13.421875 6.53125 -13.421875 L 5.484375 -13.421875 Z M 5.484375 -6.234375 L 5.484375 0 L 2.046875 0 L 2.046875 -16.234375 L 6.78125 -16.234375 C 8.988281 -16.234375 10.617188 -15.832031 11.671875 -15.03125 C 12.734375 -14.226562 13.265625 -13.007812 13.265625 -11.375 C 13.265625 -10.414062 13 -9.5625 12.46875 -8.8125 C 11.945312 -8.070312 11.203125 -7.492188 10.234375 -7.078125 C 12.679688 -3.421875 14.273438 -1.0625 15.015625 0 L 11.203125 0 L 7.328125 -6.234375 Z M 5.484375 -6.234375 "/></g></g></g><g fill="#ffffff" fill-opacity="1"><g transform="translate(225.853057, 125.797995)"><g><path d="M 11.625 -4.515625 C 11.625 -3.046875 11.097656 -1.890625 10.046875 -1.046875 C 8.992188 -0.203125 7.523438 0.21875 5.640625 0.21875 C 3.910156 0.21875 2.378906 -0.101562 1.046875 -0.75 L 1.046875 -3.953125 C 2.140625 -3.460938 3.066406 -3.117188 3.828125 -2.921875 C 4.585938 -2.722656 5.28125 -2.625 5.90625 -2.625 C 6.664062 -2.625 7.242188 -2.765625 7.640625 -3.046875 C 8.046875 -3.335938 8.25 -3.769531 8.25 -4.34375 C 8.25 -4.664062 8.160156 -4.945312 7.984375 -5.1875 C 7.804688 -5.4375 7.546875 -5.675781 7.203125 -5.90625 C 6.859375 -6.132812 6.15625 -6.503906 5.09375 -7.015625 C 4.101562 -7.472656 3.359375 -7.914062 2.859375 -8.34375 C 2.367188 -8.78125 1.972656 -9.28125 1.671875 -9.84375 C 1.378906 -10.414062 1.234375 -11.085938 1.234375 -11.859375 C 1.234375 -13.285156 1.71875 -14.410156 2.6875 -15.234375 C 3.664062 -16.054688 5.015625 -16.46875 6.734375 -16.46875 C 7.578125 -16.46875 8.378906 -16.367188 9.140625 -16.171875 C 9.910156 -15.972656 10.710938 -15.691406 11.546875 -15.328125 L 10.4375 -12.65625 C 9.570312 -13.007812 8.851562 -13.253906 8.28125 -13.390625 C 7.71875 -13.535156 7.164062 -13.609375 6.625 -13.609375 C 5.96875 -13.609375 5.460938 -13.457031 5.109375 -13.15625 C 4.765625 -12.851562 4.59375 -12.457031 4.59375 -11.96875 C 4.59375 -11.664062 4.660156 -11.398438 4.796875 -11.171875 C 4.941406 -10.941406 5.164062 -10.722656 5.46875 -10.515625 C 5.78125 -10.304688 6.515625 -9.925781 7.671875 -9.375 C 9.179688 -8.644531 10.21875 -7.914062 10.78125 -7.1875 C 11.34375 -6.457031 11.625 -5.566406 11.625 -4.515625 Z M 11.625 -4.515625 "/></g></g></g><g fill="#ffffff" fill-opacity="1"><g transform="translate(246.343328, 125.797995)"><g><path d="M 2.046875 0 L 2.046875 -16.234375 L 5.484375 -16.234375 L 5.484375 0 Z M 2.046875 0 "/></g></g></g><g fill="#ffffff" fill-opacity="1"><g transform="translate(261.835486, 125.797995)"><g><path d="M 8.3125 0 L 4.859375 0 L 4.859375 -13.375 L 0.453125 -13.375 L 0.453125 -16.234375 L 12.71875 -16.234375 L 12.71875 -13.375 L 8.3125 -13.375 Z M 8.3125 0 "/></g></g></g><g fill="#ffffff" fill-opacity="1"><g transform="translate(282.96996, 125.797995)"><g><path d="M 11.984375 0 L 10.8125 -3.859375 L 4.890625 -3.859375 L 3.703125 0 L 0 0 L 5.734375 -16.3125 L 9.9375 -16.3125 L 15.703125 0 Z M 9.984375 -6.75 C 8.898438 -10.257812 8.285156 -12.242188 8.140625 -12.703125 C 8.003906 -13.160156 7.910156 -13.519531 7.859375 -13.78125 C 7.609375 -12.832031 6.90625 -10.488281 5.75 -6.75 Z M 4.046875 -19.359375 C 4.046875 -19.835938 4.1875 -20.207031 4.46875 -20.46875 C 4.75 -20.726562 5.125 -20.859375 5.59375 -20.859375 C 6.082031 -20.859375 6.460938 -20.71875 6.734375 -20.4375 C 7.015625 -20.164062 7.15625 -19.804688 7.15625 -19.359375 C 7.15625 -18.910156 7.015625 -18.550781 6.734375 -18.28125 C 6.453125 -18.007812 6.070312 -17.875 5.59375 -17.875 C 5.125 -17.875 4.75 -18.003906 4.46875 -18.265625 C 4.1875 -18.523438 4.046875 -18.890625 4.046875 -19.359375 Z M 8.53125 -19.359375 C 8.53125 -19.878906 8.675781 -20.257812 8.96875 -20.5 C 9.269531 -20.738281 9.644531 -20.859375 10.09375 -20.859375 C 10.570312 -20.859375 10.953125 -20.722656 11.234375 -20.453125 C 11.523438 -20.191406 11.671875 -19.828125 11.671875 -19.359375 C 11.671875 -18.910156 11.523438 -18.550781 11.234375 -18.28125 C 10.953125 -18.007812 10.570312 -17.875 10.09375 -17.875 C 9.644531 -17.875 9.269531 -17.992188 8.96875 -18.234375 C 8.675781 -18.484375 8.53125 -18.859375 8.53125 -19.359375 Z M 8.53125 -19.359375 "/></g></g></g><g fill="#ffffff" fill-opacity="1"><g transform="translate(306.625704, 125.797995)"><g><path d="M 8.3125 0 L 4.859375 0 L 4.859375 -13.375 L 0.453125 -13.375 L 0.453125 -16.234375 L 12.71875 -16.234375 L 12.71875 -13.375 L 8.3125 -13.375 Z M 8.3125 0 "/></g></g></g></g></g></svg>